<?xml version="1.0" encoding="utf-8"?>
<!-- Generator: Adobe Illustrator 16.0.0, SVG Export Plug-In . SVG Version: 6.00 Build 0)  -->
<!DOCTYPE svg PUBLIC "-//W3C//DTD SVG 1.1//EN" "http://www.w3.org/Graphics/SVG/1.1/DTD/svg11.dtd">
<svg version="1.1" id="Layer_1" xmlns="http://www.w3.org/2000/svg" xmlns:xlink="http://www.w3.org/1999/xlink" x="0px" y="0px"
	 width="50px" height="80px" viewBox="0 0 50 80" enable-background="new 0 0 50 80" xml:space="preserve">
<path id="XMLID_227_" fill="#B3B3B3" d="M25,8.06c-13.785,0-25,11.215-25,25c0,10.042,6.216,19.304,15.492,23.126v3.222
	c0,0.611,0.497,1.107,1.107,1.107h16.239c0.61,0,1.107-0.496,1.107-1.107v-3.001C43.559,52.722,50,43.371,50,33.06
	C50,19.274,38.785,8.06,25,8.06z M32.476,54.585c-0.444,0.153-0.744,0.573-0.744,1.047v2.666H17.707V55.43
	c0-0.458-0.288-0.876-0.719-1.037C8.152,51.074,2.215,42.501,2.215,33.06c0-12.563,10.222-22.783,22.785-22.783
	S47.786,20.497,47.786,33.06C47.786,42.754,41.633,51.405,32.476,54.585z M32.156,71.12c0,0.61-0.498,1.107-1.109,1.107H18.954
	c-0.611,0-1.109-0.497-1.109-1.107c0-0.611,0.498-1.109,1.109-1.109h12.093C31.658,70.011,32.156,70.509,32.156,71.12z
	 M33.475,63.564c0,0.611-0.496,1.107-1.106,1.107H17.256c-0.61,0-1.107-0.496-1.107-1.107s0.497-1.109,1.107-1.109h15.112
	C32.979,62.455,33.475,62.953,33.475,63.564z M32.954,67.342c0,0.611-0.496,1.107-1.107,1.107H18.245
	c-0.611,0-1.107-0.496-1.107-1.107s0.496-1.109,1.107-1.109h13.602C32.458,66.232,32.954,66.73,32.954,67.342z M32.299,26.001
	c0.405,0.458,0.36,1.159-0.097,1.564l-6.048,5.334v11.84c0,0.611-0.498,1.109-1.109,1.109c-0.61,0-1.107-0.498-1.107-1.109v-11.84
	l-6.047-5.334c-0.458-0.405-0.502-1.107-0.098-1.565c0.196-0.223,0.467-0.355,0.762-0.373c0.296-0.016,0.581,0.08,0.803,0.275
	l5.688,5.021l5.69-5.021c0.222-0.196,0.496-0.295,0.801-0.275C31.833,25.645,32.104,25.777,32.299,26.001z"/>
</svg>
