<?xml version="1.0" encoding="utf-8"?>
<!-- Generator: Adobe Illustrator 16.0.0, SVG Export Plug-In . SVG Version: 6.00 Build 0)  -->
<!DOCTYPE svg PUBLIC "-//W3C//DTD SVG 1.1//EN" "http://www.w3.org/Graphics/SVG/1.1/DTD/svg11.dtd">
<svg version="1.1" id="Layer_1" xmlns="http://www.w3.org/2000/svg" xmlns:xlink="http://www.w3.org/1999/xlink" x="0px" y="0px"
	 width="76px" height="80px" viewBox="0 0 76 80" enable-background="new 0 0 76 80" xml:space="preserve">
<path id="XMLID_37_" fill="#B3B3B3" d="M1.15,29.582h7.823v2.3H2.299v16.236h6.673v2.3H1.15c-0.634,0-1.15-0.516-1.15-1.15V30.732
	C0,30.098,0.516,29.582,1.15,29.582z M10.084,27.025v25.949c0,0.634,0.516,1.149,1.15,1.149h7.822v-2.298h-6.673V28.174h6.673
	v-2.298h-7.822C10.6,25.876,10.084,26.392,10.084,27.025z M74.851,29.582h-7.822v2.3h6.673v16.236h-6.673v2.3h7.822
	c0.634,0,1.149-0.516,1.149-1.15V30.732C76,30.098,75.484,29.582,74.851,29.582z M64.767,25.876h-7.822v2.298h6.672v23.652h-6.672
	v2.298h7.822c0.634,0,1.149-0.516,1.149-1.149V27.025C65.916,26.392,65.4,25.876,64.767,25.876z M55.831,23.318v33.363
	c0,0.634-0.516,1.149-1.148,1.149H21.318c-0.634,0-1.15-0.516-1.15-1.149V23.318c0-0.634,0.516-1.149,1.15-1.149h33.364
	C55.315,22.169,55.831,22.685,55.831,23.318z M53.532,24.468H22.468v31.064h31.064V24.468z"/>
</svg>
