<svg id="Layer_1" data-name="Layer 1" xmlns="http://www.w3.org/2000/svg" viewBox="0 0 435.2 162.03"><defs><style>.cls-1{fill:#ef493c;}.cls-2{fill:#3281c4;}.cls-3{fill:#fff;}.cls-4{fill:#aaa;}</style></defs><title>200ok-white</title><path class="cls-1" d="M92.9,166.23l-8.12,8.12a5.11,5.11,0,0,1-7.47,0L1.65,98.69a5.11,5.11,0,0,1,0-7.47L77.31,15.57a5.11,5.11,0,0,1,7.47,0l8.12,8.12a5.11,5.11,0,0,1,0,7.47L29.09,95,92.9,158.77a5.11,5.11,0,0,1,0,7.47Z" transform="translate(-0.03 -13.94)"/><path class="cls-2" d="M357.95,15.57a5.11,5.11,0,0,0-7.47,0l-8.12,8.12a5.11,5.11,0,0,0,0,7.47L406.17,95l-63.81,63.81a5.11,5.11,0,0,0,0,7.47l8.12,8.12a5.11,5.11,0,0,0,7.47,0l75.66-75.66a5.11,5.11,0,0,0,0-7.47Z" transform="translate(-0.03 -13.94)"/><path class="cls-3" d="M93.49,118.86q0-12.6,12.55-21.59T118.69,82V63.71q0-6.32-5.8-6.32h-.1q-5.85,0-5.85,6.32V76.21H93.49V63.71q0-19.64,19.3-19.64t19.35,19.64V82.35q0,12.84-12.6,21.87T107,120v5.61h25.2v13.27H93.49Z" transform="translate(-0.03 -13.94)"/><path class="cls-3" d="M182.7,120.77q0,19.59-19.35,19.59T144,120.77V63.71q0-19.64,19.3-19.64T182.7,63.71ZM169.24,63.71q0-6.32-5.85-6.32h-.1q-5.8,0-5.8,6.32v57.06q0,6.32,5.85,6.32t5.9-6.32Z" transform="translate(-0.03 -13.94)"/><path class="cls-3" d="M232.76,120.77q0,19.59-19.35,19.59t-19.3-19.59V63.71q0-19.64,19.3-19.64t19.35,19.64ZM219.31,63.71q0-6.32-5.85-6.32h-.1q-5.8,0-5.8,6.32v57.06q0,6.32,5.85,6.32t5.9-6.32Z" transform="translate(-0.03 -13.94)"/><path class="cls-4" d="M284.73,120.77q0,20.54-20.54,20.59T243.7,120.77V63.71q0-20.54,20.49-20.54t20.54,20.54ZM268.9,63.71q0-5.33-4.66-5.37h-.09q-4.61,0-4.61,5.37v57.06q0,5.37,4.66,5.37t4.71-5.37Z" transform="translate(-0.03 -13.94)"/><path class="cls-4" d="M323,92.24l18.16,47.6H324.2L312,101.89v37.94H296.15V44.64H312v37.8l12.22-37.8h16.93Z" transform="translate(-0.03 -13.94)"/></svg>