<?xml version="1.0" encoding="UTF-8" standalone="no"?>
<svg
   xmlns:dc="http://purl.org/dc/elements/1.1/"
   xmlns:cc="http://creativecommons.org/ns#"
   xmlns:rdf="http://www.w3.org/1999/02/22-rdf-syntax-ns#"
   xmlns:svg="http://www.w3.org/2000/svg"
   xmlns="http://www.w3.org/2000/svg"
   xmlns:sodipodi="http://sodipodi.sourceforge.net/DTD/sodipodi-0.dtd"
   xmlns:inkscape="http://www.inkscape.org/namespaces/inkscape"
   width="435.261"
   height="189.92"
   viewBox="0 0 408.05672 178.04996"
   id="svg4136"
   version="1.1"
   inkscape:version="0.91 r13725"
   sodipodi:docname="200ok-dark.svg">
  <metadata
     id="metadata4156">
    <rdf:RDF>
      <cc:Work
         rdf:about="">
        <dc:format>image/svg+xml</dc:format>
        <dc:type
           rdf:resource="http://purl.org/dc/dcmitype/StillImage" />
        <dc:title></dc:title>
      </cc:Work>
    </rdf:RDF>
  </metadata>
  <defs
     id="defs4154" />
  <sodipodi:namedview
     pagecolor="#ffffff"
     bordercolor="#666666"
     borderopacity="1"
     objecttolerance="10"
     gridtolerance="10"
     guidetolerance="10"
     inkscape:pageopacity="0"
     inkscape:pageshadow="2"
     inkscape:window-width="2150"
     inkscape:window-height="1294"
     id="namedview4152"
     showgrid="false"
     inkscape:zoom="1"
     inkscape:cx="217.63049"
     inkscape:cy="94.959999"
     inkscape:window-x="0"
     inkscape:window-y="0"
     inkscape:window-maximized="0"
     inkscape:current-layer="svg4136" />
  <path
     d="M1 85.168C109.057 1.087 108.436.465 109.057 1.087c-64.76 57.986-58.674 121.504-.178 175.966z"
     fill="#14a2b2"
     stroke="#14a2b2"
     stroke-width="2"
     stroke-linecap="round"
     stroke-linejoin="round"
     id="path4138" />
  <path
     d="M407.057 85.168C299 1.086 299.62.465 299 1.086c64.76 57.987 58.673 121.505.178 175.967z"
     fill="#ee3924"
     stroke="#ee3924"
     stroke-width="2"
     stroke-linecap="round"
     stroke-linejoin="round"
     id="path4140" />
  <text
     style="line-height:125%"
     x="221"
     y="130.362"
     font-weight="400"
     font-size="40"
     font-family="Sans"
     letter-spacing="0"
     word-spacing="0"
     transform="translate(-127.696 -243.61)"
     id="text4142" />
  <g
     style="line-height:125%;-inkscape-font-specification:'Source Code Pro Bold';fill:#666666"
     font-weight="500"
     font-size="102.5"
     font-family="Source Code Pro"
     letter-spacing="-11.61"
     word-spacing="0"
     fill="#fff"
     id="g4144">
    <path
       d="M75.275 118.469h46.74v-8.61h-19.988c-3.69 0-8.097.307-11.992.615 16.4-14.863 28.495-26.958 28.495-38.95 0-11.788-8.508-19.578-21.73-19.578-9.43 0-15.888 3.793-22.038 10.045l5.74 5.638c3.998-4.1 9.123-7.585 14.965-7.585 8.918 0 13.325 4.817 13.325 11.992 0 10.558-12.197 21.935-33.517 40.488v5.945zM146.802 119.699c14.658 0 23.883-12.3 23.883-34.133 0-21.935-9.225-33.62-23.883-33.62-14.657 0-23.882 11.685-23.882 33.62 0 21.833 9.225 34.133 23.882 34.133zm0-8.098c-8.405 0-14.555-7.687-14.555-26.035 0-18.347 6.15-25.625 14.555-25.625s14.555 7.278 14.555 25.625c0 18.348-6.15 26.035-14.555 26.035zm0-19.475c3.69 0 6.765-2.665 6.765-7.072 0-4.408-3.075-7.073-6.765-7.073-3.69 0-6.765 2.665-6.765 7.073 0 4.407 3.075 7.072 6.765 7.072zM198.652 119.699c14.658 0 23.883-12.3 23.883-34.133 0-21.935-9.225-33.62-23.883-33.62-14.657 0-23.882 11.685-23.882 33.62 0 21.833 9.225 34.133 23.882 34.133zm0-8.098c-8.405 0-14.555-7.687-14.555-26.035 0-18.347 6.15-25.625 14.555-25.625s14.555 7.278 14.555 25.625c0 18.348-6.15 26.035-14.555 26.035zm0-19.475c3.69 0 6.765-2.665 6.765-7.072 0-4.408-3.075-7.073-6.765-7.073-3.69 0-6.765 2.665-6.765 7.073 0 4.407 3.075 7.072 6.765 7.072z"
       style="-inkscape-font-specification:'Source Code Pro Medium';fill:#666666"
       id="path4146" />
  </g>
  <g
     style="line-height:125%;-inkscape-font-specification:'Source Code Pro Bold';fill:#cccccc"
     font-weight="500"
     font-size="102.5"
     font-family="Source Code Pro"
     letter-spacing="-11.61"
     word-spacing="0"
     fill="#a9a9a4"
     id="g4148">
    <path
       d="M253.584 119.699c15.375 0 26.138-12.813 26.138-35.055 0-21.935-10.763-34.543-26.138-34.543-15.375 0-26.137 12.608-26.137 34.543 0 22.242 10.762 35.055 26.137 35.055zm0-8.918c-9.327 0-15.58-9.635-15.58-26.137 0-16.195 6.253-25.625 15.58-25.625 9.328 0 15.58 9.43 15.58 25.625 0 16.502-6.252 26.137-15.58 26.137zM283.909 118.469h10.353V97.866l10.557-13.017 18.245 33.62h11.48l-23.37-41.308 21.013-25.83h-11.583l-26.035 32.083h-.307V51.33h-10.353v67.138z"
       style="-inkscape-font-specification:'Source Code Pro Medium';fill:#cccccc"
       id="path4150" />
  </g>
</svg>
