<?xml version="1.0" standalone="no"?>
<!DOCTYPE svg PUBLIC "-//W3C//DTD SVG 1.1//EN" "http://www.w3.org/Graphics/SVG/1.1/DTD/svg11.dtd" >
<svg xmlns="http://www.w3.org/2000/svg">
<metadata>
Created by FontPrep 20130207 at Mon Apr 24 21:10:40 2017
 By Maxx Crawford
Gobold (c) Situjuh Nazara. 2013. All Rights Reserved
</metadata>
<defs>
<font id="4c9281fed353bcf1534451196e9109a5" horiz-adv-x='1024' >
  <font-face 
    font-family="Gobold"
    font-weight="400"
    font-stretch="normal"
    units-per-em="2048"
    panose-1="2 0 5 0 0 0 0 0 0 0"
    ascent="1638"
    descent="-410"
    x-height="1731"
    cap-height="1962"
    bbox="-283 -350 2219 2292"
    underline-thickness="150"
    underline-position="-142"
    unicode-range="U+001D-F002"
  />
<missing-glyph horiz-adv-x="1934" 
d="M780 1185q0 49 61 63v15q-89 0 -153 -56t-63 -143q0 -45 28 -82t87 -37q89 0 113 75q6 18 6 33q1 45 -39 73t-40 59zM1743 1342q-1 52 -13 159t-15 106q8 62 119 96v-794h-214q123 201 123 433zM1479 108q-99 0 -155 46t-55 129q0 162 198 416q75 95 108 143h186v-58h73
v-567q-195 -109 -355 -109zM1834 -4h-415q250 57 415 203v-203zM629 844h44v-848h-44v848zM387 842q93 0 133 -39t39 -132v-675h-459v846h287zM884 275q0 -217 194 -279h-239v848l45 24v41h-784v191q78 -80 209 -80q18 0 38 2q107 9 253 154q40 40 108 115t92 98
q66 61 134 61q37 0 74 -17q109 -50 221 -50q226 0 425 185q-16 -199 -146 -369q-25 -32 -275 -290h-66q-50 0 -83 39l-106 -106h192q-286 -318 -286 -567zM345 1624q-154 0 -245 -111v216h1009q-151 -39 -246 -144q-32 -36 -89 -122q-124 -186 -209 -255t-167 -69t-142 44
t-61 144q-1 65 37 131q48 84 145 85q97 0 99 -77q-12 13 -26 13t-26 -11t-11 -25q0 -35 36 -35h2q37 0 52 32t15 52q0 74 -66 109q-44 23 -107 23z" />
    <glyph glyph-name=".notdef" horiz-adv-x="1934" 
d="M780 1185q0 49 61 63v15q-89 0 -153 -56t-63 -143q0 -45 28 -82t87 -37q89 0 113 75q6 18 6 33q1 45 -39 73t-40 59zM1743 1342q-1 52 -13 159t-15 106q8 62 119 96v-794h-214q123 201 123 433zM1479 108q-99 0 -155 46t-55 129q0 162 198 416q75 95 108 143h186v-58h73
v-567q-195 -109 -355 -109zM1834 -4h-415q250 57 415 203v-203zM629 844h44v-848h-44v848zM387 842q93 0 133 -39t39 -132v-675h-459v846h287zM884 275q0 -217 194 -279h-239v848l45 24v41h-784v191q78 -80 209 -80q18 0 38 2q107 9 253 154q40 40 108 115t92 98
q66 61 134 61q37 0 74 -17q109 -50 221 -50q226 0 425 185q-16 -199 -146 -369q-25 -32 -275 -290h-66q-50 0 -83 39l-106 -106h192q-286 -318 -286 -567zM345 1624q-154 0 -245 -111v216h1009q-151 -39 -246 -144q-32 -36 -89 -122q-124 -186 -209 -255t-167 -69t-142 44
t-61 144q-1 65 37 131q48 84 145 85q97 0 99 -77q-12 13 -26 13t-26 -11t-11 -25q0 -35 36 -35h2q37 0 52 32t15 52q0 74 -66 109q-44 23 -107 23z" />
    <glyph glyph-name=".null" horiz-adv-x="0" 
 />
    <glyph glyph-name=".null" horiz-adv-x="0" 
 />
    <glyph glyph-name="nonmarkingreturn" horiz-adv-x="508" 
 />
    <glyph glyph-name="space" unicode=" " horiz-adv-x="508" 
 />
    <glyph glyph-name="space" unicode="&#xa0;" horiz-adv-x="508" 
 />
    <glyph glyph-name="exclam" unicode="!" horiz-adv-x="565" 
d="M120 325h325v-325h-325v325zM445 1962l-21 -1432h-283l-21 1432h325z" />
    <glyph glyph-name="quotedbl" unicode="&#x22;" horiz-adv-x="968" 
d="M120 1963h296l-34 -652h-228zM552 1963h296l-34 -652h-228z" />
    <glyph glyph-name="numbersign" unicode="#" horiz-adv-x="1349" 
d="M572 1140l-51 -257h245l51 257h-245zM122 1140v153h244l133 670h237l-133 -670h245l133 670h237l-133 -670h184v-153h-215l-51 -257h224v-153h-255l-145 -730h-237l145 730h-245l-145 -730h-237l145 730h-173v153h204l51 257h-213z" />
    <glyph glyph-name="dollar" unicode="$" 
d="M120 1613q0 358 290 404v176h232v-176q291 -46 291 -404v-264h-284v264q0 132 -122 133h-2q-122 0 -122 -133v-178q0 -132 265 -321t265 -453v-248q0 -359 -291 -404v-239h-232v239q-290 46 -290 404v263h283v-263q0 -133 123 -133t123 133v223q-1 142 -265 332t-264 461
v184z" />
    <glyph glyph-name="percent" unicode="%" horiz-adv-x="1697" 
d="M436 1783q0 78 -72 78h-2q-71 0 -71 -78v-704q1 -78 73 -78t72 78v704zM1281 1963l-722 -1963h-176l723 1963h175zM1406 947q0 78 -72 78h-2q-71 0 -71 -78v-704q1 -78 73 -78t72 78v704zM1572 243q0 -242 -239 -242h-2q-236 0 -236 242v704q1 242 239 242t238 -242v-704
zM602 1079q0 -242 -238 -242t-239 242v704q1 242 239 242t238 -242v-704z" />
    <glyph glyph-name="ampersand" unicode="&#x26;" horiz-adv-x="1183" 
d="M403 1286q0 -131 142 -134h105v134h283v-134h180v-279h-180v-460q0 -412 -410 -412q-403 0 -403 412v327q0 193 155 273q-155 80 -155 273v295q0 413 406 413t407 -413v-84h-283v84q0 120 -121 135q-126 -12 -126 -135v-295zM403 740v-327q0 -134 116 -134h5
q126 1 126 134v460h-105q-142 -3 -142 -133z" />
    <glyph glyph-name="quotesingle" unicode="'" horiz-adv-x="536" 
d="M120 1963h296l-34 -652h-228z" />
    <glyph glyph-name="parenleft" unicode="(" horiz-adv-x="544" 
d="M120 166v1632q0 407 394 412v-232q-111 -3 -111 -134v-1725q0 -130 111 -133v-233q-394 5 -394 413z" />
    <glyph glyph-name="parenright" unicode=")" horiz-adv-x="544" 
d="M141 119v1725q0 131 -111 134v232q394 -5 394 -412v-1632q0 -408 -394 -413v233q111 3 111 133z" />
    <glyph glyph-name="asterisk" unicode="*" horiz-adv-x="1012" 
d="M378 1908q0 104 126 105h4q125 0 125 -99q0 -76 -99 -253q125 133 186 161q33 16 61 16q67 0 99 -95q12 -36 12 -65q0 -98 -137 -98q-70 0 -201 26q166 -78 208 -122t41 -90q0 -45 -57 -87q-56 -42 -104 -42q-48 1 -81 67t-53 238q-23 -182 -57 -243t-80 -61t-104 41
t-58 87q1 46 47 91q46 46 203 117q-131 -25 -179 -25q-160 0 -160 102q0 27 11 61q30 97 98 97q29 1 79 -25t167 -153q-97 176 -97 249z" />
    <glyph glyph-name="plus" unicode="+" horiz-adv-x="1047" 
d="M408 865h-288v233h288v287h232v-287h287v-233h-287v-287h-232v287z" />
    <glyph glyph-name="comma" unicode="," horiz-adv-x="591" 
d="M120 325h351v-287l-108 -365h-183l58 327h-118v325z" />
    <glyph glyph-name="hyphen" unicode="-" horiz-adv-x="786" 
d="M50 841v233h686v-233h-686z" />
    <glyph glyph-name="hyphen" unicode="&#xad;" horiz-adv-x="786" 
d="M50 841v233h686v-233h-686z" />
    <glyph glyph-name="period" unicode="." horiz-adv-x="565" 
d="M120 325h325v-325h-325v325z" />
    <glyph glyph-name="slash" unicode="/" horiz-adv-x="748" 
d="M688 1963l-391 -1963h-237l391 1963h237z" />
    <glyph glyph-name="zero" unicode="0" 
d="M650 1581q0 133 -123 133h-2q-122 0 -122 -133v-1200q-1 -133 123 -133t124 133v1200zM933 381q-1 -412 -407 -412t-406 412v1200q0 413 406 413t407 -413v-1200z" />
    <glyph glyph-name="one" unicode="1" horiz-adv-x="1073" 
d="M678 1962v-1683h265v-279h-813v279h265v1404h-265v279h548z" />
    <glyph glyph-name="two" unicode="2" horiz-adv-x="1073" 
d="M130 421q0 265 264 454q265 189 266 321v385q0 133 -122 133h-2q-123 0 -123 -133v-263h-283v263q0 413 406 413t407 -413v-392q0 -269 -265 -459t-265 -333v-118h530v-279h-813v421z" />
    <glyph glyph-name="three" unicode="3" horiz-adv-x="1073" 
d="M660 1581q0 132 -123 133h-2q-122 0 -122 -133v-263h-283v263q0 412 406 412t407 -412v-341q0 -193 -155 -273q155 -80 155 -273v-313q-1 -412 -407 -412t-406 412v263h283v-263q0 -133 122 -133h2q123 1 123 133v313q0 107 -45 127q-24 10 -74 10h-93v279h115
q40 0 60 12q37 21 37 120v339z" />
    <glyph glyph-name="four" unicode="4" horiz-adv-x="1073" 
d="M626 675v834l-295 -834h295zM909 1962v-1287h109v-279h-109v-396h-283v396h-574v248l496 1318h361z" />
    <glyph glyph-name="five" unicode="5" horiz-adv-x="1073" 
d="M660 938q0 104 -44 123q-24 11 -57 11t-47 -1q-86 -4 -96 -77l-3 -79h-283l42 1047h771v-279h-499l-20 -422q72 83 196 83q172 0 260 -121q63 -86 63 -285v-557q-1 -412 -407 -412t-406 412v232h283v-232q0 -133 122 -133h2q123 1 123 133v557z" />
    <glyph glyph-name="six" unicode="6" horiz-adv-x="1073" 
d="M660 771q0 105 -44 123q-24 11 -57 11t-47 -1q-99 -4 -99 -133v-390q-1 -133 123 -133t124 133v390zM608 1175q164 0 250 -92q85 -92 85 -312v-390q-1 -412 -407 -412t-406 412v1200q0 413 406 413t407 -413v-263h-283v263q0 133 -123 133h-2q-122 0 -122 -133v-477
q79 71 195 71z" />
    <glyph glyph-name="seven" unicode="7" horiz-adv-x="1073" 
d="M121 1683v279h837v-201l-396 -1761h-290l378 1683h-529z" />
    <glyph glyph-name="eight" unicode="8" horiz-adv-x="1074" 
d="M564 1110q40 0 60 12q37 21 37 120v339q0 132 -123 133h-2q-123 -1 -123 -133v-339q0 -99 37 -120q20 -12 60 -12h54zM661 381v313q0 107 -45 127q-24 10 -74 10h-10q-50 0 -74 -10q-45 -20 -45 -127v-313q0 -132 123 -133h2q123 1 123 133zM537 1993q407 0 407 -412
v-341q0 -193 -155 -273q155 -80 155 -273v-313q0 -412 -407 -412t-407 412v313q0 193 155 273q-155 80 -155 273v341q0 412 407 412z" />
    <glyph glyph-name="nine" unicode="9" horiz-adv-x="1073" 
d="M413 1191q0 -104 44 -123q23 -10 55 -10t48 1q100 3 100 132v390q0 133 -124 133t-123 -133v-390zM462 787q-161 1 -247 93q-85 92 -85 311v390q0 412 407 413q406 0 406 -413v-1200q-1 -412 -407 -412t-406 412v264h283v-264q0 -132 123 -133h2q122 0 122 133v478
q-81 -72 -198 -72z" />
    <glyph glyph-name="colon" unicode=":" horiz-adv-x="564" 
d="M120 325h324v-325h-324v325zM120 1329h324v-324h-324v324z" />
    <glyph glyph-name="semicolon" unicode=";" horiz-adv-x="591" 
d="M120 1329h325v-324h-325v324zM120 325h351v-287l-108 -365h-183l58 327h-118v325z" />
    <glyph glyph-name="semicolon" unicode="&#x37e;" horiz-adv-x="591" 
d="M120 1329h325v-324h-325v324zM120 325h351v-287l-108 -365h-183l58 327h-118v325z" />
    <glyph glyph-name="less" unicode="&#x3c;" horiz-adv-x="1047" 
d="M120 1120l807 452v-275l-587 -320l587 -311v-274l-807 437v291z" />
    <glyph glyph-name="equal" unicode="=" horiz-adv-x="1047" 
d="M120 633v232h807v-232h-807zM120 1096v233h807v-233h-807z" />
    <glyph glyph-name="greater" unicode="&#x3e;" horiz-adv-x="1047" 
d="M927 829l-807 -437v274l587 311l-587 320v275l807 -452v-291z" />
    <glyph glyph-name="question" unicode="?" 
d="M933 1384q0 -249 -199 -447t-199 -345v-45h-283v69q0 245 199 442t199 333v190q0 133 -122 133h-2q-123 0 -123 -133v-263h-283v263q0 413 406 413t407 -413v-197zM236 325h325v-325h-325v325z" />
    <glyph glyph-name="at" unicode="@" horiz-adv-x="1483" 
d="M611 865v-257q-1 -88 81 -88t82 88v344l-82 1q-81 0 -81 -88zM1352 1303v-79q0 -272 -267 -272h-109v-344q0 -272 -268 -272t-267 272v257q0 271 267 271h82v262q0 87 -81 87h-2q-80 0 -80 -87v-70h-186v70q-1 271 267 271t268 -271v-262h109q81 0 81 88v186
q0 412 -424 412t-425 -425v-801q1 -412 425 -412t424 424v43h187v-43q1 -607 -611 -607t-612 595v801q0 608 612 608t611 -595v-107h-1z" />
    <glyph glyph-name="A" unicode="A" horiz-adv-x="1051" 
d="M633 696l-108 816l-108 -816h216zM919 696l92 -696h-286l-55 416h-289l-56 -416h-285l92 693l200 1269h388z" />
    <glyph glyph-name="B" unicode="B" horiz-adv-x="1043" 
d="M413 841v-562h124q123 0 123 133v296q0 94 -77 124q-22 9 -81 9h-89zM413 1683v-562h89q59 0 81 8q77 31 77 125v295q0 134 -123 134h-124zM130 1962h436q377 -1 377 -413v-295q0 -193 -155 -273q155 -80 155 -273v-296q0 -411 -395 -412h-418v1962z" />
    <glyph glyph-name="C" unicode="C" horiz-adv-x="1023" 
d="M923 381q0 -412 -407 -413q-406 0 -406 413v1200q0 412 406 412t407 -412v-264h-283v264q0 132 -123 133h-2q-122 0 -122 -133v-1200q-1 -133 123 -133t124 133v264h283v-264z" />
    <glyph glyph-name="D" unicode="D" 
d="M413 1683v-1404h124q123 0 123 133v1137q0 134 -123 134h-124zM130 1962h436q377 -1 377 -413v-1137q0 -411 -395 -412h-418v1962z" />
    <glyph glyph-name="E" unicode="E" horiz-adv-x="944" 
d="M130 1962h734v-279h-451v-562h388v-280h-388v-562h451v-279h-734v1962z" />
    <glyph glyph-name="F" unicode="F" horiz-adv-x="924" 
d="M130 1962h734v-279h-451v-562h388v-280h-388v-841h-283v1962z" />
    <glyph glyph-name="G" unicode="G" horiz-adv-x="1033" 
d="M923 381q0 -412 -407 -413q-406 0 -406 413v1200q0 412 406 412t407 -412v-264h-283v264q0 132 -123 133h-2q-122 0 -122 -133v-1200q-1 -133 123 -133t124 133v460h-123v280h406v-740z" />
    <glyph glyph-name="H" unicode="H" horiz-adv-x="1073" 
d="M130 1962h283v-841h247v841h283v-1962h-283v841h-247v-841h-283v1962z" />
    <glyph glyph-name="I" unicode="I" horiz-adv-x="553" 
d="M135 1962h283v-1962h-283v1962z" />
    <glyph glyph-name="J" unicode="J" horiz-adv-x="973" 
d="M30 645h283v-264q-1 -133 123 -133t124 133v1581h283v-1581q0 -413 -406 -413q-407 1 -407 413v264z" />
    <glyph glyph-name="K" unicode="K" horiz-adv-x="1057" 
d="M413 0h-283v1962h283v-873l301 873h303l-374 -981l374 -981h-303l-301 872v-872z" />
    <glyph glyph-name="L" unicode="L" horiz-adv-x="904" 
d="M130 0v1962h283v-1683h451v-279h-734z" />
    <glyph glyph-name="M" unicode="M" horiz-adv-x="1488" 
d="M1358 1962v-1962h-271v1101l-242 -1101h-192l-249 1101v-1101h-274v1962h283l333 -1344l329 1344h283z" />
    <glyph glyph-name="N" unicode="N" horiz-adv-x="1073" 
d="M130 1962h283l268 -1138v1138h262v-1962h-283l-258 1102v-1102h-272v1962z" />
    <glyph glyph-name="O" unicode="O" horiz-adv-x="1033" 
d="M640 1581q0 132 -123 133h-2q-122 0 -122 -133v-1200q-1 -133 123 -133t124 133v1200zM923 381q0 -412 -407 -413q-406 0 -406 413v1200q0 412 406 412t407 -412v-1200z" />
    <glyph glyph-name="P" unicode="P" horiz-adv-x="999" 
d="M413 1683v-562h65q59 0 81 8q77 31 77 125v295q0 134 -123 134h-100zM130 1962h412q377 -1 377 -413v-295q0 -304 -271 -392q-65 -21 -189 -21h-46v-841h-283v1962z" />
    <glyph glyph-name="Q" unicode="Q" horiz-adv-x="1033" 
d="M640 1581q0 132 -123 133h-2q-122 0 -122 -133v-1200q-1 -133 123 -133t124 133v1200zM923 381q0 -368 -310 -407q5 -64 310 -66v-236q-251 0 -345 49q-122 62 -125 250q-343 25 -343 410v1200q0 412 406 412t407 -412v-1200z" />
    <glyph glyph-name="R" unicode="R" horiz-adv-x="1044" 
d="M413 1683v-562h65q59 0 81 8q77 31 77 125v295q0 134 -123 134h-100zM130 1962h412q377 -1 377 -413v-295q0 -259 -223 -341l318 -913h-310l-255 863l-36 -5v-858h-283v1962z" />
    <glyph glyph-name="S" unicode="S" horiz-adv-x="1033" 
d="M110 1581q0 412 406 412t407 -412v-264h-283v264q0 132 -123 133h-2q-122 0 -122 -133v-178q0 -131 265 -321t265 -453v-248q0 -413 -406 -413q-407 1 -407 413v264h283v-264q-1 -133 123 -133t124 133v224q0 141 -265 331t-265 461v184z" />
    <glyph glyph-name="T" unicode="T" horiz-adv-x="913" 
d="M863 1962v-279h-265v-1683h-283v1683h-265v279h813z" />
    <glyph glyph-name="U" unicode="U" 
d="M933 381q0 -412 -407 -413q-406 0 -406 413v1581h283v-1581q-1 -133 123 -133t124 133v1581h283v-1581z" />
    <glyph glyph-name="V" unicode="V" horiz-adv-x="1051" 
d="M720 0h-388l-200 1268l-92 694h286l199 -1512l200 1512h286l-92 -696z" />
    <glyph glyph-name="W" unicode="W" horiz-adv-x="1732" 
d="M1206 450l200 1512h286l-92 -696l-199 -1266h-388l-147 1013l-146 -1013h-388l-200 1268l-92 694h285l200 -1512l200 1512h281z" />
    <glyph glyph-name="X" unicode="X" horiz-adv-x="1017" 
d="M325 1962l184 -552l183 552h285l-326 -981l326 -981h-285l-183 552l-184 -552h-285l326 981l-326 981h285z" />
    <glyph glyph-name="Y" unicode="Y" horiz-adv-x="1066" 
d="M675 0h-283v825l-352 1137h300l193 -765l193 765h300l-343 -1113l-8 -24v-825z" />
    <glyph glyph-name="Z" unicode="Z" horiz-adv-x="880" 
d="M800 279v-279h-720v170l384 1513h-371v279h690v-170l-384 -1513h401z" />
    <glyph glyph-name="bracketleft" unicode="[" horiz-adv-x="547" 
d="M517 2210v-232h-154v-1992h154v-233h-387v2457h387z" />
    <glyph glyph-name="backslash" unicode="\" horiz-adv-x="748" 
d="M297 1963l391 -1963h-237l-391 1963h237z" />
    <glyph glyph-name="bracketright" unicode="]" horiz-adv-x="547" 
d="M417 2210v-2457h-387v233h154v1992h-154v232h387z" />
    <glyph glyph-name="asciicircum" unicode="^" horiz-adv-x="1157" 
d="M706 1979l351 -807h-254l-225 517l-224 -517h-254l351 807h255z" />
    <glyph glyph-name="underscore" unicode="_" horiz-adv-x="1032" 
d="M0 -318v211h1032v-211h-1032z" />
    <glyph glyph-name="grave" unicode="`" horiz-adv-x="624" 
d="M130 2058h222l142 -253h-157z" />
    <glyph glyph-name="a" unicode="a" horiz-adv-x="1051" 
d="M633 615l-108 722l-108 -722h216zM919 615l92 -615h-286l-55 368h-289l-56 -368h-285l92 613l200 1121h388z" />
    <glyph glyph-name="b" unicode="b" horiz-adv-x="1043" 
d="M413 743v-496h124q123 0 123 117v262q0 83 -77 109q-22 8 -81 8h-89zM413 1488v-497h89q59 0 81 7q77 27 77 111v260q0 119 -123 119h-124zM130 1734h436q377 0 377 -365v-260q0 -171 -155 -242q155 -71 155 -241v-262q0 -363 -395 -364h-418v1734z" />
    <glyph glyph-name="c" unicode="c" horiz-adv-x="1023" 
d="M923 333q-1 -365 -407 -365t-406 365v1061q0 364 406 364t407 -364v-233h-283v233q0 117 -123 117h-2q-122 0 -122 -117v-1061q-1 -117 123 -117t124 117v233h283v-233z" />
    <glyph glyph-name="d" unicode="d" 
d="M413 1488v-1241h124q123 0 123 117v1005q0 119 -123 119h-124zM130 1734h436q377 0 377 -365v-1005q0 -363 -395 -364h-418v1734z" />
    <glyph glyph-name="e" unicode="e" horiz-adv-x="944" 
d="M130 1734h734v-246h-451v-497h388v-248h-388v-496h451v-247h-734v1734z" />
    <glyph glyph-name="f" unicode="f" horiz-adv-x="924" 
d="M130 1734h734v-246h-451v-497h388v-248h-388v-743h-283v1734z" />
    <glyph glyph-name="g" unicode="g" horiz-adv-x="1033" 
d="M923 333q-1 -365 -407 -365t-406 365v1061q0 364 406 364t407 -364v-233h-283v233q0 117 -123 117h-2q-122 0 -122 -117v-1061q-1 -117 123 -117t124 117v407h-123v247h406v-654z" />
    <glyph glyph-name="h" unicode="h" horiz-adv-x="1073" 
d="M130 1734h283v-743h247v743h283v-1734h-283v743h-247v-743h-283v1734z" />
    <glyph glyph-name="i" unicode="i" horiz-adv-x="553" 
d="M135 1734h283v-1734h-283v1734z" />
    <glyph glyph-name="j" unicode="j" horiz-adv-x="973" 
d="M30 566h283v-233q-1 -117 123 -117t124 117v1398h283v-1398q-1 -365 -407 -365t-406 365v233z" />
    <glyph glyph-name="k" unicode="k" horiz-adv-x="1057" 
d="M413 0h-283v1734h283v-771l301 771h303l-374 -867l374 -867h-303l-301 771v-771z" />
    <glyph glyph-name="l" unicode="l" horiz-adv-x="904" 
d="M130 0v1734h283v-1487h451v-247h-734z" />
    <glyph glyph-name="m" unicode="m" horiz-adv-x="1488" 
d="M1358 1734v-1734h-271v973l-242 -973h-192l-249 973v-973h-274v1734h283l333 -1188l329 1188h283z" />
    <glyph glyph-name="n" unicode="n" horiz-adv-x="1073" 
d="M130 1734h283l268 -1006v1006h262v-1734h-283l-258 974v-974h-272v1734z" />
    <glyph glyph-name="o" unicode="o" horiz-adv-x="1033" 
d="M640 1394q0 117 -123 117h-2q-122 0 -122 -117v-1061q-1 -117 123 -117t124 117v1061zM923 333q-1 -365 -407 -365t-406 365v1061q0 364 406 364t407 -364v-1061z" />
    <glyph glyph-name="p" unicode="p" horiz-adv-x="999" 
d="M413 1488v-497h65q59 0 81 7q77 27 77 111v260q0 119 -123 119h-100zM130 1734h412q377 0 377 -365v-260q0 -269 -271 -347q-65 -19 -189 -19h-46v-743h-283v1734z" />
    <glyph glyph-name="q" unicode="q" horiz-adv-x="1033" 
d="M640 1360q0 116 -123 117h-2q-122 0 -122 -117v-1061q-1 -118 123 -118t124 118v1061zM923 299q0 -326 -310 -360q5 -57 310 -58v-209q-251 0 -345 43q-122 55 -125 221q-343 22 -343 363v1061q0 364 406 364t407 -364v-1061z" />
    <glyph glyph-name="r" unicode="r" horiz-adv-x="1044" 
d="M413 1488v-497h65q59 0 81 7q77 27 77 111v260q0 119 -123 119h-100zM130 1734h412q377 0 377 -365v-260q0 -229 -223 -302l318 -807h-310l-255 763l-36 -5v-758h-283v1734z" />
    <glyph glyph-name="s" unicode="s" horiz-adv-x="1033" 
d="M110 1394q0 364 406 364t407 -364v-233h-283v233q0 117 -123 117h-2q-122 0 -122 -117v-157q0 -115 265 -283t265 -402v-219q-1 -365 -407 -365t-406 365v233h283v-233q-1 -117 123 -117t124 117v198q0 125 -265 293t-265 407v163z" />
    <glyph glyph-name="t" unicode="t" horiz-adv-x="913" 
d="M863 1734v-246h-265v-1488h-283v1488h-265v246h813z" />
    <glyph glyph-name="u" unicode="u" 
d="M933 333q-1 -365 -407 -365t-406 365v1398h283v-1398q-1 -117 123 -117t124 117v1398h283v-1398z" />
    <glyph glyph-name="v" unicode="v" horiz-adv-x="1051" 
d="M720 0h-388l-200 1121l-92 613h286l199 -1336l200 1336h286l-92 -615z" />
    <glyph glyph-name="w" unicode="w" horiz-adv-x="1732" 
d="M1206 398l200 1336h286l-92 -615l-199 -1119h-388l-147 895l-146 -895h-388l-200 1121l-92 613h285l200 -1336l200 1336h281z" />
    <glyph glyph-name="x" unicode="x" horiz-adv-x="1017" 
d="M325 1734l184 -488l183 488h285l-326 -867l326 -867h-285l-183 488l-184 -488h-285l326 867l-326 867h285z" />
    <glyph glyph-name="y" unicode="y" horiz-adv-x="1066" 
d="M675 0h-283v729l-352 1005h300l193 -676l193 676h300l-351 -1005v-729z" />
    <glyph glyph-name="z" unicode="z" horiz-adv-x="880" 
d="M800 247v-247h-720v150l384 1338h-371v246h690v-150l-384 -1337h401z" />
    <glyph glyph-name="braceleft" unicode="{" horiz-adv-x="545" 
d="M121 166v566q0 131 -111 133v233q111 3 111 133v567q0 407 394 412v-232q-111 -3 -111 -134v-566q0 -199 -79 -296q79 -98 79 -297v-566q0 -130 111 -133v-233q-394 5 -394 413z" />
    <glyph glyph-name="bar" unicode="|" horiz-adv-x="512" 
d="M140 2290h232v-2617h-232v2617z" />
    <glyph glyph-name="braceright" unicode="}" horiz-adv-x="545" 
d="M141 119v566q0 199 79 297q-79 97 -79 296v566q0 131 -111 134v232q394 -5 394 -412v-567q0 -130 111 -133v-233q-111 -2 -111 -133v-566q0 -408 -394 -413v233q111 3 111 133z" />
    <glyph glyph-name="asciitilde" unicode="~" horiz-adv-x="1100" 
d="M386 1177h10q88 -4 224 -106q68 -51 106 -51t56 24l62 78l156 -124l-62 -78q-90 -114 -204 -114h-12q-88 4 -222 105q-80 60 -90 62t-15 2q-34 0 -73 -60l-54 -84l-168 109l54 83q99 154 232 154z" />
    <glyph glyph-name="exclamdown" unicode="&#xa1;" horiz-adv-x="565" 
d="M445 1404h-325v325h325v-325zM120 -233l21 1432h283l21 -1432h-325z" />
    <glyph glyph-name="cent" unicode="&#xa2;" horiz-adv-x="1073" 
d="M526 219q124 0 124 117v233h283v-233q0 -363 -407 -363q-96 0 -169 20l-98 -320l-139 9l113 372q-113 90 -113 282v1057q0 364 406 364q128 0 216 -36l71 231l140 -9l-94 -306q74 -89 74 -244v-232h-219l-279 -914q30 -28 91 -28zM403 1393v-784l246 805q-11 96 -122 97
q-124 0 -124 -118z" />
    <glyph glyph-name="sterling" unicode="&#xa3;" horiz-adv-x="1126" 
d="M536 918v-366q0 -177 -62 -273h513v-279h-927v279h69q124 0 124 134v505h-193v158h193v505q1 413 407 413t406 -413v-263h-283v263q0 133 -123 133h-2q-122 0 -122 -133v-505h331v-158h-331z" />
    <glyph glyph-name="currency" unicode="&#xa4;" horiz-adv-x="1398" 
d="M823 1115q0 132 -123 133h-2q-122 0 -122 -133v-267q0 -133 124 -133t123 133v267zM1106 848q0 -57 -7 -106l169 -168l-170 -171l-110 111q-97 -78 -289 -78t-288 77l-110 -110l-171 171l169 168q-6 48 -6 106v267q0 48 4 89l-167 167l171 170l100 -100q96 87 298 87
t299 -87l100 100l170 -170l-167 -167q5 -41 5 -89v-267z" />
    <glyph glyph-name="yen" unicode="&#xa5;" horiz-adv-x="1186" 
d="M997 976v-158h-262v-159h262v-159h-262v-500h-283v500h-262v159h262v159h-262v158h214l-304 986h300l193 -764l193 764h300l-304 -986h215z" />
    <glyph glyph-name="brokenbar" unicode="&#xa6;" horiz-adv-x="512" 
d="M140 784h232v-784h-232v784zM140 1729h232v-743h-232v743z" />
    <glyph glyph-name="section" unicode="&#xa7;" 
d="M653 896q0 143 -133 144h-2q-132 0 -132 -144v-41q0 -144 134 -144t133 144v41zM529 -327q-386 0 -386 380v106h283v-106q0 -123 112 -123t111 123q-1 191 -265 351t-264 504q0 273 188 346q-188 126 -188 384q0 356 394 356t395 -356v-100h-283v100q0 115 -112 115
t-111 -115q0 -180 265 -330t265 -472q0 -285 -241 -340q241 -148 241 -443q0 -380 -404 -380z" />
    <glyph glyph-name="dieresis" unicode="&#xa8;" horiz-adv-x="899" 
d="M526 2048h243v-242h-243v242zM130 2048h242v-242h-242v242z" />
    <glyph glyph-name="copyright" unicode="&#xa9;" horiz-adv-x="1463" 
d="M1004 604q0 -275 -270 -275t-271 275v798q1 274 271 274t270 -274v-77h-189v77q0 88 -81 89q-83 0 -83 -89v-798q0 -89 82 -89t82 89v76h189v-76zM1156 1410q0 412 -424 412t-425 -425v-801q1 -412 425 -412t424 424v802zM1343 608q1 -607 -611 -607t-612 595v801
q0 608 612 608t611 -595v-802z" />
    <glyph glyph-name="ordfeminine" unicode="&#xaa;" horiz-adv-x="761" 
d="M67 521v193h619v-193h-619zM451 1293l-71 431l-71 -431h142zM640 1293l61 -368h-189l-36 221h-191l-37 -221h-188l61 367l132 670h256z" />
    <glyph glyph-name="guillemotleft" unicode="&#xab;" horiz-adv-x="1305" 
d="M686 1179l-224 -190l224 -184v-320l-556 517l556 507v-330zM1175 1179l-224 -190l224 -184v-320l-556 517l556 507v-330z" />
    <glyph glyph-name="logicalnot" unicode="&#xac;" horiz-adv-x="1067" 
d="M130 865v233h807v-520h-232v287h-575z" />
    <glyph glyph-name="registered" unicode="&#xae;" horiz-adv-x="1463" 
d="M646 1470v-374h59q40 0 55 6q51 20 51 82v197q0 89 -82 89h-83zM748 1655q251 0 251 -274v-197q0 -128 -103 -181q103 -53 103 -182v-471h-188v471q0 62 -51 83q-15 6 -55 6h-59v-560h-188v1306l278 -1h12zM1156 1410q0 412 -424 412t-425 -425v-801q1 -412 425 -412
t424 424v802zM1343 608q1 -607 -611 -607t-612 595v801q0 608 612 608t611 -595v-802z" />
    <glyph glyph-name="macron" unicode="&#xaf;" horiz-adv-x="1208" 
d="M0 1752v211h1208v-211h-1208z" />
    <glyph glyph-name="degree" unicode="&#xb0;" horiz-adv-x="877" 
d="M438 1866q-126 0 -125 -126q-1 -126 125 -125q126 -1 126 125t-126 126zM747 1740q-1 -308 -309 -308t-308 308t308 309q308 -1 309 -309z" />
    <glyph glyph-name="plusminus" unicode="&#xb1;" horiz-adv-x="1047" 
d="M925 372v-212h-805v212h805zM408 865h-288v233h288v287h232v-287h287v-233h-287v-287h-232v287z" />
    <glyph glyph-name="uni00B2" unicode="&#xb2;" horiz-adv-x="674" 
d="M100 1077q0 155 154 265t155 187v224q0 78 -71 78h-1q-72 0 -72 -78v-153h-165v153q0 241 237 241t237 -241v-228q0 -159 -154 -269t-155 -193v-69h309v-163h-474v246z" />
    <glyph glyph-name="uni00B3" unicode="&#xb3;" horiz-adv-x="679" 
d="M414 1261q0 63 -20 72t-50 9h-57v164h70q23 0 40 10t17 68v172q0 63 -20 72t-40 9t-29 -1q-60 -2 -60 -80v-154h-165v155q0 168 97 218q69 35 137 35t137 -31q108 -46 108 -222v-174q0 -114 -91 -161q91 -47 91 -161v-210q0 -151 -78 -206q-49 -35 -153 -38h-14
q-92 0 -143 30q-91 52 -91 214v155h165v-156q1 -80 75 -80t74 80v211z" />
    <glyph glyph-name="acute" unicode="&#xb4;" horiz-adv-x="624" 
d="M287 1805h-157l142 253h222z" />
    <glyph glyph-name="mu" unicode="&#xb5;" horiz-adv-x="1063" 
d="M413 380q-1 -132 123 -132t124 133v1254h283v-1254q0 -373 -319 -408q-19 -2 -37 -2q-93 0 -174 53v-351h-283v1962h283v-1255z" />
    <glyph glyph-name="paragraph" unicode="&#xb6;" horiz-adv-x="1170" 
d="M1040 1963v-1963h-201v1762h-223v-1762h-201v1021q-194 0 -246 39q-69 52 -69 250v354q0 199 71 255q55 44 244 44h625z" />
    <glyph glyph-name="periodcentered" unicode="&#xb7;" horiz-adv-x="508" 
d="M117 993h276v-276h-276v276z" />
    <glyph glyph-name="periodcentered" unicode="&#x2219;" horiz-adv-x="508" 
d="M117 993h276v-276h-276v276z" />
    <glyph glyph-name="cedilla" unicode="&#xb8;" horiz-adv-x="634" 
d="M453 -255q0 -95 -138 -95t-138 95v29h118v-29q0 -15 20 -15t20 15v99q0 17 -18 18h-2q-17 0 -24 -17h-113l31 156h121l-31 -87q37 20 69 20t58 -20q27 -20 27 -70v-99z" />
    <glyph glyph-name="uni00B9" unicode="&#xb9;" horiz-adv-x="1073" 
d="M446 1962v-971h153v-161h-469v161h153v810h-153v161h316z" />
    <glyph glyph-name="ordmasculine" unicode="&#xba;" horiz-adv-x="777" 
d="M130 506v175h516v-175h-516zM470 1744q0 70 -82 70t-81 -70v-634q-1 -71 81 -71t82 71v634zM657 1110q-1 -218 -269 -218t-268 218v634q0 218 268 218t269 -218v-634z" />
    <glyph glyph-name="guillemotright" unicode="&#xbb;" horiz-adv-x="1305" 
d="M130 1509l556 -507l-556 -517v320l224 184l-224 190v330zM619 1509l556 -507l-556 -517v320l224 184l-224 190v330z" />
    <glyph glyph-name="onequarter" unicode="&#xbc;" horiz-adv-x="1609" 
d="M436 1962v-971h153v-161h-469v161h153v810h-153v161h316zM1337 1963l-722 -1963h-176l723 1963h175zM1284 436v429l-169 -429h169zM1446 1125v-689h63v-160h-63v-276h-162v276h-329v142l284 707h207z" />
    <glyph glyph-name="onehalf" unicode="&#xbd;" horiz-adv-x="1685" 
d="M1111 246q0 154 154 264t155 188v224q0 78 -71 78h-1q-72 0 -72 -78v-153h-165v153q0 241 237 241t237 -241v-228q-1 -158 -155 -268t-154 -194v-69h309v-163h-474v246zM376 1962v-971h153v-161h-469v161h153v810h-153v161h316zM1277 1963l-722 -1963h-176l723 1963h175z
" />
    <glyph glyph-name="threequarters" unicode="&#xbe;" horiz-adv-x="1549" 
d="M414 1261q0 63 -20 72t-50 9h-57v164h70q23 0 40 10t17 68v172q0 63 -20 72t-40 9t-29 -1q-60 -2 -60 -80v-154h-165v155q0 168 97 218q69 35 137 35t137 -31q108 -46 108 -222v-174q0 -114 -91 -161q91 -47 91 -161v-210q0 -151 -78 -206q-49 -35 -153 -38h-14
q-92 0 -143 30q-91 52 -91 214v155h165v-156q1 -80 75 -80t74 80v211zM1277 1963l-722 -1963h-176l723 1963h175zM1224 436v429l-169 -429h169zM1386 1125v-689h63v-160h-63v-276h-162v276h-329v142l284 707h207z" />
    <glyph glyph-name="questiondown" unicode="&#xbf;" 
d="M120 345q0 249 199 447t199 345v45h283v-69q0 -245 -199 -442t-199 -333v-190q0 -133 122 -133h2q123 0 123 133v263h283v-263q-1 -413 -407 -413t-406 413v197zM817 1404h-325v325h325v-325z" />
    <glyph glyph-name="Agrave" unicode="&#xc0;" horiz-adv-x="1051" 
d="M653 696l-108 816l-108 -816h216zM939 696l92 -696h-286l-55 416h-289l-56 -416h-285l92 693l200 1269h388zM215 2291h222l142 -253h-157z" />
    <glyph glyph-name="Aacute" unicode="&#xc1;" horiz-adv-x="1051" 
d="M653 696l-108 816l-108 -816h216zM939 696l92 -696h-286l-55 416h-289l-56 -416h-285l92 693l200 1269h388zM537 2038h-157l142 253h222z" />
    <glyph glyph-name="Acircumflex" unicode="&#xc2;" horiz-adv-x="1051" 
d="M653 696l-108 816l-108 -816h216zM939 696l92 -696h-286l-55 416h-289l-56 -416h-285l92 693l200 1269h388zM198 2039l214 252h264l218 -252h-214l-136 93l-135 -93h-211z" />
    <glyph glyph-name="Atilde" unicode="&#xc3;" horiz-adv-x="1051" 
d="M653 696l-108 816l-108 -816h216zM939 696l92 -696h-286l-55 416h-289l-56 -416h-285l92 693l200 1269h388zM418 2291q68 0 146 -49t108 -49t46 23l41 67l130 -86l-41 -68q-64 -102 -158 -107h-7q-67 0 -152 54t-98 55h-4q-28 0 -55 -54l-35 -71l-137 73l35 71
q67 135 174 141h7z" />
    <glyph glyph-name="Adieresis" unicode="&#xc4;" horiz-adv-x="1051" 
d="M653 696l-108 816l-108 -816h216zM939 696l92 -696h-286l-55 416h-289l-56 -416h-285l92 693l200 1269h388zM622 2281h243v-242h-243v242zM226 2281h242v-242h-242v242z" />
    <glyph glyph-name="Aring" unicode="&#xc5;" horiz-adv-x="1091" 
d="M347 2094q1 198 199 198t198 -198q0 -84 -35 -132h31l199 -1266l92 -696h-286l-55 416h-289l-56 -416h-285l92 693l200 1269h30q-35 48 -35 132zM546 2174q-80 0 -81 -80q1 -80 81 -81q80 1 80 81t-80 80zM653 696l-108 816l-108 -816h216z" />
    <glyph glyph-name="AE" unicode="&#xc6;" horiz-adv-x="1478" 
d="M551 696v771l-6 45l-108 -816h114zM551 416h-150l-56 -416h-285l92 693l200 1269h933v-279h-451v-562h388v-280h-388v-562h451v-279h-734v416z" />
    <glyph glyph-name="Ccedilla" unicode="&#xc7;" horiz-adv-x="1043" 
d="M568 -350q-138 0 -138 95v29h118v-29q0 -15 20 -15t20 15v99q0 17 -19 18h-1q-17 0 -24 -17h-114l26 126q-336 34 -336 410v1200q0 412 406 412t407 -412v-264h-283v264q0 132 -123 133h-2q-122 0 -122 -133v-1200q-1 -133 123 -133t124 133v264h283v-264
q0 -389 -362 -412l-20 -55q37 20 69 20t58 -20q28 -20 28 -70v-99q0 -95 -138 -95z" />
    <glyph glyph-name="Egrave" unicode="&#xc8;" horiz-adv-x="944" 
d="M130 1962h734v-279h-451v-562h388v-280h-388v-562h451v-279h-734v1962zM166 2291h222l142 -253h-157z" />
    <glyph glyph-name="Eacute" unicode="&#xc9;" horiz-adv-x="944" 
d="M130 1962h734v-279h-451v-562h388v-280h-388v-562h451v-279h-734v1962zM489 2038h-157l142 253h222z" />
    <glyph glyph-name="Ecircumflex" unicode="&#xca;" horiz-adv-x="944" 
d="M108 1962h734v-279h-451v-562h388v-280h-388v-562h451v-279h-734v1962zM127 2039l214 252h264l218 -252h-214l-136 93l-135 -93h-211z" />
    <glyph glyph-name="Edieresis" unicode="&#xcb;" horiz-adv-x="944" 
d="M130 1962h734v-279h-451v-562h388v-280h-388v-562h451v-279h-734v1962zM574 2281h243v-242h-243v242zM178 2281h242v-242h-242v242z" />
    <glyph glyph-name="Igrave" unicode="&#xcc;" horiz-adv-x="553" 
d="M135 1962h283v-1962h-283v1962zM-54 2291h222l142 -253h-157z" />
    <glyph glyph-name="Iacute" unicode="&#xcd;" horiz-adv-x="553" 
d="M135 1962h283v-1962h-283v1962zM268 2038h-157l142 253h222z" />
    <glyph glyph-name="Icircumflex" unicode="&#xce;" horiz-adv-x="553" 
d="M95 1962h283v-1962h-283v1962zM-112 2039l214 252h264l218 -252h-214l-136 93l-135 -93h-211z" />
    <glyph glyph-name="Idieresis" unicode="&#xcf;" horiz-adv-x="553" 
d="M135 1962h283v-1962h-283v1962zM353 2281h243v-242h-243v242zM-43 2281h242v-242h-242v242z" />
    <glyph glyph-name="Eth" unicode="&#xd0;" horiz-adv-x="1115" 
d="M182 1087v875l436 -1q377 0 377 -412v-1137q0 -411 -377 -411q-6 0 -18 -1h-418v876h-124v211h124zM465 876v-597h124q123 0 123 133v1137q0 134 -123 134h-124v-596h98v-211h-98z" />
    <glyph glyph-name="Ntilde" unicode="&#xd1;" horiz-adv-x="1073" 
d="M130 1962h283l268 -1138v1138h262v-1962h-283l-258 1102v-1102h-272v1962zM409 2291q67 0 145 -49t110 -49q30 0 45 23l41 67l130 -86l-41 -68q-64 -102 -158 -107h-7q-67 0 -152 54t-98 55h-4q-28 0 -55 -54l-35 -71l-137 73l35 71q67 135 174 141h7z" />
    <glyph glyph-name="Ograve" unicode="&#xd2;" horiz-adv-x="1033" 
d="M650 1581q0 132 -123 133h-2q-122 0 -122 -133v-1200q-1 -133 123 -133t124 133v1200zM933 381q0 -412 -407 -413q-406 0 -406 413v1200q0 412 406 412t407 -412v-1200zM196 2291h222l142 -253h-157z" />
    <glyph glyph-name="Oacute" unicode="&#xd3;" horiz-adv-x="1033" 
d="M650 1581q0 132 -123 133h-2q-122 0 -122 -133v-1200q-1 -133 123 -133t124 133v1200zM933 381q0 -412 -407 -413q-406 0 -406 413v1200q0 412 406 412t407 -412v-1200zM518 2038h-157l142 253h222z" />
    <glyph glyph-name="Ocircumflex" unicode="&#xd4;" horiz-adv-x="1033" 
d="M650 1581q0 132 -123 133h-2q-122 0 -122 -133v-1200q-1 -133 123 -133t124 133v1200zM933 381q0 -412 -407 -413q-406 0 -406 413v1200q0 412 406 412t407 -412v-1200zM179 2039l214 252h264l218 -252h-214l-136 93l-135 -93h-211z" />
    <glyph glyph-name="Otilde" unicode="&#xd5;" horiz-adv-x="1033" 
d="M650 1581q0 132 -123 133h-2q-122 0 -122 -133v-1200q-1 -133 123 -133t124 133v1200zM933 381q0 -412 -407 -413q-406 0 -406 413v1200q0 412 406 412t407 -412v-1200zM399 2291q67 0 145 -49t110 -49q30 0 45 23l41 67l130 -86l-41 -68q-64 -102 -158 -107h-7
q-67 0 -152 54t-98 55h-4q-28 0 -55 -54l-35 -71l-137 73l35 71q67 135 174 141h7z" />
    <glyph glyph-name="Odieresis" unicode="&#xd6;" horiz-adv-x="1033" 
d="M650 1581q0 132 -123 133h-2q-122 0 -122 -133v-1200q-1 -133 123 -133t124 133v1200zM933 381q0 -412 -407 -413q-406 0 -406 413v1200q0 412 406 412t407 -412v-1200zM603 2281h243v-242h-243v242zM207 2281h242v-242h-242v242z" />
    <glyph glyph-name="multiply" unicode="&#xd7;" horiz-adv-x="1047" 
d="M524 817l-203 -203l-165 165l204 203l-203 203l164 164l203 -203l203 203l164 -165l-203 -202l203 -203l-164 -164z" />
    <glyph glyph-name="Oslash" unicode="&#xd8;" 
d="M933 1581v-1200q0 -412 -407 -413q-105 0 -182 27l-49 -201h-140l67 277q-102 103 -102 310v1200q0 412 406 412q88 0 156 -19l31 127h141l-46 -190q125 -102 125 -330zM527 1714h-2q-122 0 -122 -133v-762l210 868q-31 27 -86 27zM526 248q124 0 124 133v878l-232 -956
q29 -55 108 -55z" />
    <glyph glyph-name="Ugrave" unicode="&#xd9;" 
d="M933 381q0 -412 -407 -413q-406 0 -406 413v1581h283v-1581q-1 -133 123 -133t124 133v1581h283v-1581zM196 2291h222l142 -253h-157z" />
    <glyph glyph-name="Uacute" unicode="&#xda;" 
d="M933 381q0 -412 -407 -413q-406 0 -406 413v1581h283v-1581q-1 -133 123 -133t124 133v1581h283v-1581zM518 2038h-157l142 253h222z" />
    <glyph glyph-name="Ucircumflex" unicode="&#xdb;" 
d="M933 381q0 -412 -407 -413q-406 0 -406 413v1581h283v-1581q-1 -133 123 -133t124 133v1581h283v-1581zM179 2039l214 252h264l218 -252h-214l-136 93l-135 -93h-211z" />
    <glyph glyph-name="Udieresis" unicode="&#xdc;" 
d="M933 381q0 -412 -407 -413q-406 0 -406 413v1581h283v-1581q-1 -133 123 -133t124 133v1581h283v-1581zM603 2281h243v-242h-243v242zM207 2281h242v-242h-242v242z" />
    <glyph glyph-name="Yacute" unicode="&#xdd;" horiz-adv-x="1066" 
d="M695 0h-283v825l-352 1137h300l193 -765l193 765h300l-343 -1113l-8 -24v-825zM545 2038h-157l142 253h222z" />
    <glyph glyph-name="Thorn" unicode="&#xde;" horiz-adv-x="1018" 
d="M413 1356v-563h64q59 0 82 9q76 31 76 125v295q0 134 -123 134h-99zM413 1635h92q6 0 18 -1h19q376 0 376 -412v-295q0 -304 -270 -392q-66 -21 -190 -21h-45v-841h-283v2289h283v-327z" />
    <glyph glyph-name="germandbls" unicode="&#xdf;" 
d="M413 1121h88q59 0 82 9q77 30 77 124v296q0 132 -123 133h-2q-122 0 -122 -133v-429zM943 1254q0 -193 -156 -273q156 -79 156 -273v-508q0 -411 -377 -411l-28 -1v279q122 0 122 133v508q0 94 -77 125q-23 9 -82 9h-88v-842h-283v1550q0 412 406 412t407 -412v-296z" />
    <glyph glyph-name="agrave" unicode="&#xe0;" horiz-adv-x="1051" 
d="M653 615l-108 722l-108 -722h216zM939 615l92 -615h-286l-55 368h-289l-56 -368h-285l92 613l200 1121h388zM215 2058h222l142 -253h-157z" />
    <glyph glyph-name="aacute" unicode="&#xe1;" horiz-adv-x="1051" 
d="M653 615l-108 722l-108 -722h216zM939 615l92 -615h-286l-55 368h-289l-56 -368h-285l92 613l200 1121h388zM537 1805h-157l142 253h222z" />
    <glyph glyph-name="acircumflex" unicode="&#xe2;" horiz-adv-x="1051" 
d="M653 615l-108 722l-108 -722h216zM939 615l92 -615h-286l-55 368h-289l-56 -368h-285l92 613l200 1121h388zM198 1806l214 252h264l218 -252h-214l-136 93l-135 -93h-211z" />
    <glyph glyph-name="atilde" unicode="&#xe3;" horiz-adv-x="1051" 
d="M653 615l-108 722l-108 -722h216zM939 615l92 -615h-286l-55 368h-289l-56 -368h-285l92 613l200 1121h388zM418 2058q68 0 146 -49t108 -49t46 23l41 67l130 -86l-41 -68q-64 -102 -158 -107h-7q-67 -1 -152 53t-98 56h-4q-28 0 -55 -54l-35 -71l-137 73l35 71
q67 135 174 141h7z" />
    <glyph glyph-name="adieresis" unicode="&#xe4;" horiz-adv-x="1051" 
d="M653 615l-108 722l-108 -722h216zM939 615l92 -615h-286l-55 368h-289l-56 -368h-285l92 613l200 1121h388zM622 2048h243v-242h-243v242zM226 2048h242v-242h-242v242z" />
    <glyph glyph-name="aring" unicode="&#xe5;" horiz-adv-x="1091" 
d="M347 1861q1 198 199 198t198 -198q0 -84 -35 -132h31l199 -1115l92 -614h-286l-55 368h-289l-56 -368h-285l92 611l200 1118h30q-35 48 -35 132zM546 1941q-80 -1 -81 -81q1 -80 81 -80t80 80t-80 81zM653 614l-108 718l-108 -718h216z" />
    <glyph glyph-name="ae" unicode="&#xe6;" horiz-adv-x="1568" 
d="M552 614v671l-7 47l-108 -718h115zM552 368h-151l-56 -368h-285l92 611l200 1118h934v-246h-451v-495h388v-246h-388v-496h451v-246h-734v368z" />
    <glyph glyph-name="ccedilla" unicode="&#xe7;" horiz-adv-x="1043" 
d="M665 -255q0 -95 -138 -95t-138 95v29h118v-29q0 -15 20 -15t20 15v99q0 17 -18 18h-2q-17 0 -24 -17h-113l27 136q-297 45 -297 355v1057q0 364 406 364t407 -364v-232h-283v232q0 117 -124 117t-123 -117v-1057q-1 -117 123 -117t124 117v233h283v-233q0 -360 -401 -363
l-21 -59q37 20 69 20t58 -20q27 -20 27 -70v-99z" />
    <glyph glyph-name="egrave" unicode="&#xe8;" horiz-adv-x="944" 
d="M130 1734h734v-246h-451v-497h388v-248h-388v-496h451v-247h-734v1734zM166 2058h222l142 -253h-157z" />
    <glyph glyph-name="eacute" unicode="&#xe9;" horiz-adv-x="944" 
d="M130 1734h734v-246h-451v-497h388v-248h-388v-496h451v-247h-734v1734zM489 1805h-157l142 253h222z" />
    <glyph glyph-name="ecircumflex" unicode="&#xea;" horiz-adv-x="944" 
d="M108 1734h734v-246h-451v-497h388v-248h-388v-496h451v-247h-734v1734zM127 1806l214 252h264l218 -252h-214l-136 93l-135 -93h-211z" />
    <glyph glyph-name="edieresis" unicode="&#xeb;" horiz-adv-x="944" 
d="M130 1734h734v-246h-451v-497h388v-248h-388v-496h451v-247h-734v1734zM574 2048h243v-242h-243v242zM178 2048h242v-242h-242v242z" />
    <glyph glyph-name="igrave" unicode="&#xec;" horiz-adv-x="514" 
d="M135 1729h283v-1729h-283v1729zM-54 2058h222l142 -253h-157z" />
    <glyph glyph-name="iacute" unicode="&#xed;" horiz-adv-x="514" 
d="M135 1729h283v-1729h-283v1729zM268 1805h-157l142 253h222z" />
    <glyph glyph-name="icircumflex" unicode="&#xee;" horiz-adv-x="514" 
d="M95 1729h283v-1729h-283v1729zM-112 1806l214 252h264l218 -252h-214l-136 93l-135 -93h-211z" />
    <glyph glyph-name="idieresis" unicode="&#xef;" horiz-adv-x="514" 
d="M135 1729h283v-1729h-283v1729zM353 2048h243v-242h-243v242zM-43 2048h242v-242h-242v242z" />
    <glyph glyph-name="eth" unicode="&#xf0;" 
d="M403 413q-1 -133 123 -133t124 133v365q0 129 -99 133q-15 1 -48 1t-56 -10q-44 -19 -44 -124v-365zM933 1052v-639q-1 -413 -407 -413t-406 413v365q0 392 351 392q105 0 179 -59q0 248 -96 399l-215 -181l-138 164l200 168q-61 38 -175 82l69 222q203 -60 309 -134
l167 140l137 -164l-149 -125q174 -231 174 -630z" />
    <glyph glyph-name="ntilde" unicode="&#xf1;" horiz-adv-x="1073" 
d="M130 1734h283l268 -1006v1006h262v-1734h-283l-258 974v-974h-272v1734zM409 2058q67 0 145 -49t110 -49q30 0 45 23l41 67l130 -86l-41 -68q-64 -102 -158 -107h-7q-67 -1 -152 53t-98 56h-4q-28 0 -55 -54l-35 -71l-137 73l35 71q67 135 174 141h7z" />
    <glyph glyph-name="ograve" unicode="&#xf2;" horiz-adv-x="1033" 
d="M650 1394q0 117 -123 117h-2q-122 0 -122 -117v-1061q-1 -117 123 -117t124 117v1061zM933 333q-1 -365 -407 -365t-406 365v1061q0 364 406 364t407 -364v-1061zM196 2058h222l142 -253h-157z" />
    <glyph glyph-name="oacute" unicode="&#xf3;" horiz-adv-x="1033" 
d="M650 1394q0 117 -123 117h-2q-122 0 -122 -117v-1061q-1 -117 123 -117t124 117v1061zM933 333q-1 -365 -407 -365t-406 365v1061q0 364 406 364t407 -364v-1061zM518 1805h-157l142 253h222z" />
    <glyph glyph-name="ocircumflex" unicode="&#xf4;" horiz-adv-x="1033" 
d="M650 1394q0 117 -123 117h-2q-122 0 -122 -117v-1061q-1 -117 123 -117t124 117v1061zM933 333q-1 -365 -407 -365t-406 365v1061q0 364 406 364t407 -364v-1061zM179 1806l214 252h264l218 -252h-214l-136 93l-135 -93h-211z" />
    <glyph glyph-name="otilde" unicode="&#xf5;" horiz-adv-x="1033" 
d="M650 1394q0 117 -123 117h-2q-122 0 -122 -117v-1061q-1 -117 123 -117t124 117v1061zM933 333q-1 -365 -407 -365t-406 365v1061q0 364 406 364t407 -364v-1061zM399 2058q67 0 145 -49t110 -49q30 0 45 23l41 67l130 -86l-41 -68q-64 -102 -158 -107h-7q-67 -1 -152 53
t-98 56h-4q-28 0 -55 -54l-35 -71l-137 73l35 71q67 135 174 141h7z" />
    <glyph glyph-name="odieresis" unicode="&#xf6;" horiz-adv-x="1033" 
d="M650 1394q0 117 -123 117h-2q-122 0 -122 -117v-1061q-1 -117 123 -117t124 117v1061zM933 333q-1 -365 -407 -365t-406 365v1061q0 364 406 364t407 -364v-1061zM603 2048h243v-242h-243v242zM207 2048h242v-242h-242v242z" />
    <glyph glyph-name="divide" unicode="&#xf7;" horiz-adv-x="1045" 
d="M925 1100v-234h-805v234h805zM360 644h324v-325h-324v325zM360 1648h324v-324h-324v324z" />
    <glyph glyph-name="oslash" unicode="&#xf8;" 
d="M933 1393v-1057q0 -363 -407 -363q-96 0 -170 20l-98 -320l-139 9l114 372q-113 91 -113 282v1057q0 364 406 364q128 0 216 -36l70 231l140 -9l-93 -305q74 -89 74 -245zM403 1393v-781l246 805q-12 93 -122 94q-124 0 -124 -118zM526 219q124 0 124 117v619l-216 -707
q31 -29 92 -29z" />
    <glyph glyph-name="ugrave" unicode="&#xf9;" 
d="M933 333q-1 -365 -407 -365t-406 365v1398h283v-1398q-1 -117 123 -117t124 117v1398h283v-1398zM196 2058h222l142 -253h-157z" />
    <glyph glyph-name="uacute" unicode="&#xfa;" 
d="M933 333q-1 -365 -407 -365t-406 365v1398h283v-1398q-1 -117 123 -117t124 117v1398h283v-1398zM518 1805h-157l142 253h222z" />
    <glyph glyph-name="ucircumflex" unicode="&#xfb;" 
d="M933 333q-1 -365 -407 -365t-406 365v1398h283v-1398q-1 -117 123 -117t124 117v1398h283v-1398zM179 1806l214 252h264l218 -252h-214l-136 93l-135 -93h-211z" />
    <glyph glyph-name="udieresis" unicode="&#xfc;" 
d="M933 333q-1 -365 -407 -365t-406 365v1398h283v-1398q-1 -117 123 -117t124 117v1398h283v-1398zM603 2048h243v-242h-243v242zM207 2048h242v-242h-242v242z" />
    <glyph glyph-name="yacute" unicode="&#xfd;" horiz-adv-x="1066" 
d="M695 0h-283v729l-352 1005h300l193 -676l193 676h300l-351 -1005v-729zM545 1805h-157l142 253h222z" />
    <glyph glyph-name="thorn" unicode="&#xfe;" horiz-adv-x="1010" 
d="M413 1356v-563h64q59 0 82 9q76 31 76 125v295q0 134 -123 134h-99zM413 1635h92q6 0 18 -1h19q376 0 376 -412v-295q0 -304 -270 -392q-66 -21 -190 -21h-45v-841h-283v2289h283v-327z" />
    <glyph glyph-name="ydieresis" unicode="&#xff;" horiz-adv-x="1066" 
d="M695 0h-283v729l-352 1005h300l193 -676l193 676h300l-351 -1005v-729zM630 2048h243v-242h-243v242zM234 2048h242v-242h-242v242z" />
    <glyph glyph-name="dotlessi" unicode="&#x131;" horiz-adv-x="514" 
d="M135 1729h283v-1729h-283v1729z" />
    <glyph glyph-name="OE" unicode="&#x152;" horiz-adv-x="1370" 
d="M515 1714q-122 0 -122 -133v-1200q0 -133 123 -133q82 0 110 59v1348q-27 58 -109 59h-2zM516 -32q-406 0 -406 413v1200q0 412 406 412q112 0 193 -31h651v-279h-444q7 -47 7 -102v-460h374v-280h-374v-460q0 -55 -7 -102h444v-279h-650q-81 -32 -194 -32z" />
    <glyph glyph-name="oe" unicode="&#x153;" horiz-adv-x="1590" 
d="M640 1394q0 117 -123 117h-2q-122 0 -122 -117v-1061q-1 -117 123 -117t124 117v1061zM516 -32q-406 0 -406 365v1061q0 364 406 364q105 0 182 -24h676v-246h-451v-497h388v-248h-388v-496h451v-247h-654q-84 -32 -204 -32z" />
    <glyph glyph-name="circumflex" unicode="&#x2c6;" horiz-adv-x="956" 
d="M130 1806l214 252h264l218 -252h-214l-136 93l-135 -93h-211z" />
    <glyph glyph-name="caron" unicode="&#x2c7;" horiz-adv-x="956" 
d="M341 2058l135 -93l136 93h214l-218 -252h-264l-214 252h211z" />
    <glyph glyph-name="uni02C9" unicode="&#x2c9;" horiz-adv-x="899" 
d="M130 1990h639v-185h-639v185z" />
    <glyph glyph-name="breve" unicode="&#x2d8;" horiz-adv-x="1026" 
d="M501 1787h-3q-272 2 -368 268h214q31 -108 168 -108h1q139 0 169 108h214q-126 -268 -395 -268z" />
    <glyph glyph-name="dotaccent" unicode="&#x2d9;" horiz-adv-x="503" 
d="M130 2053h243v-242h-243v242z" />
    <glyph glyph-name="ring" unicode="&#x2da;" horiz-adv-x="657" 
d="M328 1941q-80 -1 -80 -81t80 -80t81 80q-1 80 -81 81zM527 1860q-1 -198 -199 -198t-198 198t198 199q198 -1 199 -199z" />
    <glyph glyph-name="tilde" unicode="&#x2dc;" horiz-adv-x="947" 
d="M346 2058q68 0 146 -49t108 -49t46 23l41 67l130 -86l-41 -68q-64 -102 -158 -107h-7q-67 -1 -152 53t-98 56h-4q-28 0 -55 -54l-35 -71l-137 73l35 71q67 135 174 141h7z" />
    <glyph glyph-name="hungarumlaut" unicode="&#x2dd;" horiz-adv-x="1024" 
d="M157 1805h-157l142 253h222zM521 1805h-157l142 253h222z" />
    <glyph glyph-name="endash" unicode="&#x2013;" horiz-adv-x="1172" 
d="M50 841v233h1060v-233h-1060z" />
    <glyph glyph-name="emdash" unicode="&#x2014;" horiz-adv-x="2048" 
d="M50 841v233h1963v-233h-1963z" />
    <glyph glyph-name="quoteleft" unicode="&#x2018;" horiz-adv-x="557" 
d="M480 1311h-350v288l107 364h184l-58 -327h117v-325z" />
    <glyph glyph-name="quoteright" unicode="&#x2019;" horiz-adv-x="610" 
d="M130 1963h350v-288l-107 -364h-184l58 327h-117v325z" />
    <glyph glyph-name="quotesinglbase" unicode="&#x201a;" horiz-adv-x="557" 
d="M120 325h351v-287l-108 -365h-183l58 327h-118v325z" />
    <glyph glyph-name="quotedblleft" unicode="&#x201c;" horiz-adv-x="1047" 
d="M480 1311h-350v288l107 364h184l-58 -327h117v-325zM970 1311h-350v288l107 364h184l-58 -327h117v-325z" />
    <glyph glyph-name="quotedblright" unicode="&#x201d;" horiz-adv-x="1100" 
d="M130 1963h350v-288l-107 -364h-184l58 327h-117v325zM620 1963h350v-288l-107 -364h-184l58 327h-117v325z" />
    <glyph glyph-name="quotedblbase" unicode="&#x201e;" horiz-adv-x="1100" 
d="M130 326h350v-288l-107 -364h-184l58 327h-117v325zM620 326h350v-288l-107 -364h-184l58 327h-117v325z" />
    <glyph glyph-name="dagger" unicode="&#x2020;" horiz-adv-x="1454" 
d="M221 1221q-91 0 -91 142t98 142q12 0 24 -2l388 -57l-53 399q-3 14 -3 26q0 90 142 90t142 -98q0 -12 -2 -24l-56 -388l399 54q13 2 25 2q90 0 90 -142t-98 -142q-12 0 -24 2l-387 56q27 -208 27 -508v-160q0 -298 26 -497q2 -13 2 -25q0 -91 -142 -91t-142 100
q0 10 2 22q28 188 28 465l-2 189q0 292 31 501l-399 -54q-13 -2 -25 -2z" />
    <glyph glyph-name="daggerdbl" unicode="&#x2021;" horiz-adv-x="1454" 
d="M220 1221q-90 0 -90 142t98 142q11 0 23 -2l388 -57l-53 399q-2 14 -2 25q0 91 142 91t142 -100q0 -10 -20 -143q-20 -132 -19 -186t5 -58t55 -5q51 0 191 19t153 19q91 0 91 -142t-98 -142q-12 0 -24 2l-388 56l16 -118q37 -29 37 -73l-7 -104l9 -123q0 -45 -44 -72
l-16 -106l399 53q13 2 25 2q91 0 91 -142t-100 -142q-10 0 -22 2l-388 57l53 -399q2 -13 2 -25q0 -91 -142 -91t-142 100q0 10 2 22l57 388l-399 -53q-14 -3 -26 -3q-89 0 -89 142t98 142q11 0 23 -2l388 -56l-16 118q-37 29 -37 74l7 103l-9 123q0 45 44 72l16 107
l-399 -54q-13 -2 -25 -2z" />
    <glyph glyph-name="bullet" unicode="&#x2022;" horiz-adv-x="987" 
d="M130 984q0 150 106 256t258 107q150 -1 256 -107t107 -256q0 -150 -106 -258q-107 -106 -257 -106t-258 106q-106 108 -106 258z" />
    <glyph glyph-name="ellipsis" unicode="&#x2026;" horiz-adv-x="2048" 
d="M120 325h325v-325h-325v325zM803 325h325v-325h-325v325zM1486 325h325v-325h-325v325z" />
    <glyph glyph-name="guilsinglleft" unicode="&#x2039;" horiz-adv-x="816" 
d="M686 1179l-224 -190l224 -184v-320l-556 517l556 507v-330z" />
    <glyph glyph-name="guilsinglright" unicode="&#x203a;" horiz-adv-x="816" 
d="M130 1509l556 -507l-556 -517v320l224 184l-224 190v330z" />
    <glyph glyph-name="fraction" unicode="&#x2044;" horiz-adv-x="342" 
d="M615 1963l-722 -1963h-176l723 1963h175z" />
    <glyph glyph-name="fraction" unicode="&#x2215;" horiz-adv-x="342" 
d="M615 1963l-722 -1963h-176l723 1963h175z" />
    <glyph glyph-name="franc" unicode="&#x20a3;" horiz-adv-x="963" 
d="M169 596v1366h734v-279h-451v-562h388v-280h-388v-245h186v-211h-186v-385h-283v385h-119v211h119z" />
    <glyph glyph-name="lira" unicode="&#x20a4;" horiz-adv-x="1125" 
d="M252 1235v346q0 413 406 413t407 -413v-263h-283v263q0 133 -123 133h-2q-122 0 -122 -133v-346h332v-159h-332v-158h332v-159h-332v-207q0 -177 -62 -273h514v-279h-927v279h69q123 0 123 134v346h-192v159h192v158h-192v159h192z" />
    <glyph glyph-name="peseta" unicode="&#x20a7;" horiz-adv-x="2175" 
d="M840 1483v-229q0 -304 -244 -392q-58 -21 -170 -21h-41v-841h-255v1962l371 -1q254 0 318 -232h724v-36q99 64 269 64q407 0 407 -364v-232h-283v232q0 117 -124 117t-123 -117v-156q0 -117 265 -283t265 -399v-219q-1 -363 -407 -363t-406 363v233h283v-233
q-1 -117 123 -117t124 117v197q0 126 -265 293t-265 405v162q0 48 7 90h-135v-1483h-283v1483h-155zM385 1683v-562h58q53 0 73 8q69 31 69 125v295q0 134 -110 134h-90z" />
    <glyph glyph-name="Euro" unicode="&#x20ac;" horiz-adv-x="1094" 
d="M171 1219v362q1 413 407 413t406 -413v-263h-283v263q0 133 -123 133h-2q-122 0 -122 -133v-362h382v-158h-382v-160h382v-158h-382v-362q0 -133 124 -133t123 133v264h283v-264q0 -412 -406 -412t-407 412v362h-141v158h141v160h-141v158h141z" />
    <glyph glyph-name="uni2116" unicode="&#x2116;" horiz-adv-x="1850" 
d="M130 1962h283l268 -1138v1138h262v-1962h-283l-258 1102v-1102h-272v1962zM1203 506v175h516v-175h-516zM1543 1744q1 70 -81 70t-82 -70v-634q0 -71 82 -71t81 71v634zM1730 1110q0 -218 -268 -218t-269 218v634q1 218 269 218t268 -218v-634z" />
    <glyph glyph-name="trademark" unicode="&#x2122;" horiz-adv-x="1108" 
d="M1032 1730v-785h-122v440l-109 -440h-87l-112 440v-440h-123v785h127l150 -538l148 538h128zM426 1729v-112h-119v-673h-128v673h-119v112h366z" />
    <glyph glyph-name="partialdiff" unicode="&#x2202;" 
d="M403 413q-1 -133 123 -133t124 133v365q0 129 -100 133q-16 1 -48 1t-55 -10q-44 -19 -44 -124v-365zM933 1052v-639q-1 -413 -407 -413t-406 413v365q0 392 350 392q106 0 180 -59q0 468 -425 632l70 222q638 -188 638 -913z" />
    <glyph glyph-name="minus" unicode="&#x2212;" horiz-adv-x="1045" 
d="M925 1100v-234h-805v234h805z" />
    <glyph glyph-name="approxequal" unicode="&#x2248;" horiz-adv-x="1100" 
d="M386 1236h10q88 -4 224 -106q68 -51 106 -51t56 24l62 78l156 -124l-62 -78q-90 -114 -204 -114h-12q-88 4 -222 105q-80 60 -90 62t-15 2q-34 0 -73 -60l-54 -84l-168 109l54 83q99 154 232 154zM386 865h10q88 -4 224 -106q68 -51 106 -51t56 24l62 78l156 -124
l-62 -78q-90 -114 -204 -114h-12q-88 4 -222 105q-80 60 -90 62t-15 2q-34 0 -73 -60l-54 -84l-168 109l54 83q99 154 232 154z" />
    <glyph glyph-name="lessequal" unicode="&#x2264;" horiz-adv-x="1047" 
d="M120 1079l807 452v-275l-587 -320l587 -311v-274l-807 437v291zM925 234v-234h-805v234h805z" />
    <glyph glyph-name="greaterequal" unicode="&#x2265;" horiz-adv-x="1047" 
d="M927 788l-807 -437v274l587 311l-587 320v275l807 -452v-291zM925 234v-234h-805v234h805z" />
    <glyph glyph-name="uniF001" unicode="&#xf001;" horiz-adv-x="1472" 
d="M130 1734h734v-246h-451v-497h388v-248h-388v-743h-283v1734zM1059 1734h283v-1734h-283v1734z" />
    <glyph glyph-name="uniF001" unicode="&#xfb01;" horiz-adv-x="1472" 
d="M130 1734h734v-246h-451v-497h388v-248h-388v-743h-283v1734zM1059 1734h283v-1734h-283v1734z" />
    <glyph glyph-name="uniF002" unicode="&#xf002;" horiz-adv-x="1848" 
d="M130 1734h734v-246h-451v-497h388v-248h-388v-743h-283v1734zM1054 0v1734h283v-1487h451v-247h-734z" />
    <glyph glyph-name="uniF002" unicode="&#xfb02;" horiz-adv-x="1848" 
d="M130 1734h734v-246h-451v-497h388v-248h-388v-743h-283v1734zM1054 0v1734h283v-1487h451v-247h-734z" />
    </font>
</defs>
</svg>
