<?xml version="1.0" encoding="UTF-8"?><svg id="Layer_2" xmlns="http://www.w3.org/2000/svg" viewBox="0 0 435.21 162.08"><defs><style>.cls-1{fill:#ef493c;}.cls-2{fill:#3281c4;}.cls-3{fill:#a6a8ab;}.cls-4{fill:#58595b;}</style></defs><g id="Layer_1-2"><g><path class="cls-1" d="M92.87,152.28l-8.12,8.12c-1.93,2.06-5.16,2.17-7.22,.25-.09-.08-.17-.16-.25-.25L1.62,84.74c-2.06-1.93-2.17-5.16-.25-7.22,.08-.09,.16-.17,.25-.25L77.28,1.62c1.93-2.06,5.16-2.17,7.22-.25,.09,.08,.17,.16,.25,.25l8.12,8.12c2.06,1.93,2.17,5.16,.25,7.22-.08,.09-.16,.17-.25,.25L29.06,81.05l63.81,63.77c2.06,1.93,2.17,5.16,.25,7.22-.08,.09-.16,.17-.25,.25h0Z"/><path class="cls-2" d="M357.92,1.62c-1.93-2.06-5.16-2.17-7.22-.25-.09,.08-.17,.16-.25,.25l-8.12,8.12c-2.06,1.93-2.17,5.16-.25,7.22,.08,.09,.16,.17,.25,.25l63.81,63.84-63.81,63.81c-2.06,1.93-2.17,5.16-.25,7.22,.08,.09,.16,.17,.25,.25l8.12,8.12c1.93,2.06,5.16,2.17,7.22,.25,.09-.08,.17-.16,.25-.25l75.66-75.66c2.06-1.93,2.17-5.16,.25-7.22-.08-.09-.16-.17-.25-.25L357.92,1.62Z"/><path class="cls-4" d="M93.46,104.91c0-8.4,4.18-15.6,12.55-21.59s12.58-11.08,12.65-15.27v-18.29c0-4.21-1.93-6.32-5.8-6.32h-.1c-3.9,0-5.85,2.11-5.85,6.32v12.5h-13.45v-12.5c0-13.09,6.43-19.64,19.3-19.64,12.87,0,19.32,6.55,19.35,19.64v18.64c0,8.56-4.2,15.85-12.6,21.87-8.4,6.02-12.58,11.28-12.54,15.78v5.61h25.2v13.27h-38.71v-20.02Z"/><path class="cls-4" d="M182.67,106.82c0,13.06-6.45,19.59-19.35,19.59s-19.35-6.53-19.35-19.59V49.76c0-13.09,6.43-19.64,19.3-19.64,12.87,0,19.33,6.55,19.4,19.64v57.06Zm-13.46-57.06c0-4.21-1.95-6.32-5.85-6.32h-.1c-3.87,0-5.8,2.11-5.8,6.32v57.06c0,4.21,1.95,6.32,5.85,6.32s5.87-2.11,5.9-6.32V49.76Z"/><path class="cls-4" d="M232.73,106.82c0,13.06-6.45,19.59-19.35,19.59s-19.33-6.53-19.3-19.59V49.76c0-13.09,6.43-19.64,19.3-19.64,12.87,0,19.32,6.55,19.35,19.64v57.06Zm-13.45-57.06c0-4.21-1.95-6.32-5.85-6.32h-.1c-3.87,0-5.8,2.11-5.8,6.32v57.06c0,4.21,1.95,6.32,5.85,6.32s5.87-2.11,5.9-6.32V49.76Z"/><path class="cls-3" d="M284.7,106.82c0,13.69-6.85,20.56-20.54,20.59-13.69,.03-20.52-6.83-20.49-20.59V49.76c0-13.69,6.83-20.54,20.49-20.54s20.51,6.85,20.54,20.54v57.06Zm-15.83-57.06c0-3.55-1.55-5.34-4.66-5.37h-.09c-3.07,0-4.61,1.79-4.61,5.37v57.06c0,3.58,1.55,5.37,4.66,5.37s4.68-1.79,4.71-5.37V49.76Z"/><path class="cls-3" d="M322.97,78.29l18.16,47.6h-16.96l-12.2-37.95v37.94h-15.85V30.69h15.85v37.8l12.22-37.8h16.93l-18.15,47.6Z"/></g></g></svg>