<svg xmlns="http://www.w3.org/2000/svg" viewBox="0 0 932.05 409.19"><g id="Layer_2" data-name="Layer 2"><g id="Layer_1-2" data-name="Layer 1"><polygon points="271.47 0 185.48 272.77 99.83 0 0 0 138.31 402.8 229.97 402.8 369.48 0 271.47 0"/><rect x="675.27" width="88.45" height="402.8"/><path d="M932.05,151.76V71.59H869.28V0H780.83V322.52c0,16.08,1.7,29,5.2,39.46,4,11.93,10.42,21.46,19.14,28.32,8.23,6.5,18.73,10.95,31.22,13.23a214.22,214.22,0,0,0,37.72,2.9h57.94V326.25H890a164.68,164.68,0,0,1-17.73-.75,20.83,20.83,0,0,1-2.5-.41,45.79,45.79,0,0,1-.45-7.21V151.76Z"/><path d="M616.77,110.6h0a157.26,157.26,0,0,0-54.08-37.8c-21.1-9.07-45.79-13.67-73.36-13.67-27.15,0-51.7,4.59-73,13.65s-39.74,21.84-54.46,37.82A157.18,157.18,0,0,0,328.75,167,210.36,210.36,0,0,0,318,234.73c0,24,3.61,46.7,10.74,67.46a157.27,157.27,0,0,0,33.1,56.1c14.75,16,33.13,28.68,54.61,37.6,21.25,8.82,45.76,13.3,72.84,13.3,27.51,0,52.14-4.48,73.22-13.33a153.92,153.92,0,0,0,54.23-37.57,157.7,157.7,0,0,0,33.1-56.09,207.67,207.67,0,0,0,10.74-67.47A210.31,210.31,0,0,0,649.89,167,157.43,157.43,0,0,0,616.77,110.6ZM562.58,277c-4.2,11.68-10,21.45-17.12,29a72.26,72.26,0,0,1-25.14,17.44,78.48,78.48,0,0,1-31,6.12,79.67,79.67,0,0,1-31-6.12A72.08,72.08,0,0,1,433.18,306c-7.17-7.59-12.92-17.36-17.12-29-4.34-12-6.53-26.26-6.53-42.26s2.2-30.21,6.53-42.26c4.22-11.73,10-21.64,17.25-29.46a70.5,70.5,0,0,1,25-17.59,81.57,81.57,0,0,1,62,0,70.69,70.69,0,0,1,25,17.58c7.22,7.83,13,17.74,17.25,29.47,4.33,12.07,6.53,26.29,6.53,42.26S566.92,264.93,562.58,277Z"/></g></g></svg>