<svg xmlns="http://www.w3.org/2000/svg" viewBox="0 0 467.5 174.06"><defs><style>.cls-1{fill:#ef483c;}.cls-2{fill:#3382c5;}.cls-3{fill:#58595b;}.cls-4{fill:#a7a9ac;}</style></defs><title>Asset 2v2</title><g id="Layer_2" data-name="Layer 2"><g id="Layer_1-2" data-name="Layer 1"><path class="cls-1" d="M99.76,163.59,91,172.31a5.49,5.49,0,0,1-8,0L1.74,91a5.49,5.49,0,0,1,0-8L83,1.74a5.49,5.49,0,0,1,8,0l8.72,8.72a5.49,5.49,0,0,1,0,8L31.22,87l68.54,68.54a5.49,5.49,0,0,1,0,8Z"/><path class="cls-2" d="M384.48,1.74a5.49,5.49,0,0,0-8,0l-8.72,8.72a5.49,5.49,0,0,0,0,8L436.28,87l-68.54,68.54a5.49,5.49,0,0,0,0,8l8.72,8.72a5.49,5.49,0,0,0,8,0L465.75,91a5.49,5.49,0,0,0,0-8Z"/><path class="cls-3" d="M100.4,112.71q0-13.53,13.48-23.19t13.59-16.4V53.46q0-6.79-6.23-6.79h-.1q-6.28,0-6.28,6.79V66.89H100.4V53.46q0-21.09,20.74-21.09t20.79,21.09v20q0,13.79-13.54,23.5t-13.54,17v6h27.07v14.25H100.4Z"/><path class="cls-3" d="M196.22,114.75q0,21-20.79,21t-20.74-21V53.46q0-21.09,20.74-21.09t20.79,21.09ZM181.76,53.46q0-6.79-6.28-6.79h-.1q-6.23,0-6.23,6.79v61.29q0,6.79,6.28,6.79t6.33-6.79Z"/><path class="cls-3" d="M250,114.75q0,21-20.79,21t-20.74-21V53.46q0-21.09,20.74-21.09T250,53.46ZM235.55,53.46q0-6.79-6.28-6.79h-.1q-6.23,0-6.23,6.79v61.29q0,6.79,6.28,6.79t6.33-6.79Z"/><path class="cls-4" d="M305.83,114.75q0,22.06-22.07,22.12t-22-22.12V53.46q0-22.06,22-22.07t22.07,22.07Zm-17-61.29q0-5.72-5-5.77h-.1q-5,0-5,5.77v61.29q0,5.77,5,5.77t5.06-5.77Z"/><path class="cls-4" d="M346.9,84.1l19.51,51.13H348.22L335.1,94.47v40.76h-17V33h17V73.58L348.22,33h18.18Z"/></g></g></svg>