<?xml version="1.0" encoding="utf-8"?>
<!-- Generator: Adobe Illustrator 16.0.0, SVG Export Plug-In . SVG Version: 6.00 Build 0)  -->
<!DOCTYPE svg PUBLIC "-//W3C//DTD SVG 1.1//EN" "http://www.w3.org/Graphics/SVG/1.1/DTD/svg11.dtd">
<svg version="1.1" id="Layer_1" xmlns="http://www.w3.org/2000/svg" xmlns:xlink="http://www.w3.org/1999/xlink" x="0px" y="0px"
	 width="76px" height="80px" viewBox="0 0 76 80" enable-background="new 0 0 76 80" xml:space="preserve">
<path id="XMLID_11_" fill="#B3B3B3" d="M36.461,53.244c0,0.641-0.521,1.161-1.161,1.161H14.167c-0.641,0-1.162-0.521-1.162-1.161
	s0.521-1.162,1.162-1.162H35.3C35.94,52.082,36.461,52.604,36.461,53.244z M35.3,38.499H14.167c-0.641,0-1.162,0.521-1.162,1.162
	c0,0.641,0.521,1.162,1.162,1.162H35.3c0.64,0,1.161-0.521,1.161-1.162C36.461,39.02,35.94,38.499,35.3,38.499z M61.833,25.617H40.7
	c-0.641,0-1.161,0.521-1.161,1.162c0,0.04,0.004,0.077,0.012,0.126c0.064,0.591,0.559,1.036,1.149,1.036h21.133
	c0.641,0,1.162-0.521,1.162-1.162S62.474,25.617,61.833,25.617z M29.508,65.862c-3.768,0.972-7.719,1.096-11.434,0.364
	c-1.225,0.728-2.489,1.289-3.861,1.719c-1.595,0.5-3.205,0.752-4.788,0.752c-5.457,0-8.894-2.996-9.037-3.124
	c-0.392-0.351-0.5-0.923-0.264-1.39c0.237-0.47,0.761-0.723,1.274-0.615c0.127,0.024,3.174,0.563,6.682-1.925
	c-3.355-2.699-5.676-6.253-6.719-10.301c-2.902-11.259,5.001-23.065,17.618-26.318c2.163-0.558,4.374-0.841,6.572-0.841
	c10.372,0,19.243,6.316,21.575,15.36C50.028,50.803,42.125,62.609,29.508,65.862z M44.875,40.124
	c-2.065-8.018-10.013-13.617-19.324-13.617c-2.001,0-4.018,0.258-5.992,0.767C8.183,30.208,1.029,40.744,3.61,50.763
	c1.031,3.999,3.463,7.422,7.033,9.897c0.29,0.201,0.476,0.532,0.498,0.886c0.021,0.357-0.121,0.699-0.39,0.938
	c-2.061,1.829-4.104,2.696-5.673,3.104c2.654,0.994,5.546,1.046,8.441,0.14c1.33-0.417,2.548-0.978,3.723-1.716
	c0.257-0.163,0.575-0.217,0.868-0.15c3.499,0.76,7.241,0.674,10.818-0.249C40.305,60.68,47.458,50.143,44.875,40.124z
	 M61.833,39.201H48.632l0.073,0.353c0.113,0.546,0.204,1.122,0.27,1.709l0.028,0.261h12.83c0.641,0,1.162-0.521,1.162-1.161
	S62.474,39.201,61.833,39.201z M61.833,32.397H45.506l0.318,0.46c0.381,0.549,0.734,1.125,1.053,1.71l0.083,0.154h14.873
	c0.641,0,1.162-0.522,1.162-1.163C62.995,32.919,62.474,32.397,61.833,32.397z M35.3,45.279H14.167
	c-0.641,0-1.162,0.521-1.162,1.161s0.521,1.162,1.162,1.162H35.3c0.64,0,1.161-0.521,1.161-1.162S35.94,45.279,35.3,45.279z
	 M75.876,51.301c-0.238-0.468-0.765-0.723-1.268-0.614c-0.135,0.024-3.185,0.56-6.688-1.924c3.356-2.7,5.676-6.254,6.72-10.302
	c2.901-11.259-5.002-23.065-17.618-26.318c-2.163-0.558-4.374-0.841-6.572-0.841c-9.012,0-17.041,4.796-20.455,12.22l-0.17,0.37
	l0.404,0.044c0.591,0.066,1.189,0.155,1.777,0.266l0.218,0.041l0.099-0.199c3.145-6.328,10.26-10.417,18.127-10.417
	c2,0,4.016,0.257,5.992,0.767c11.376,2.933,18.53,13.47,15.947,23.488c-1.03,4-3.463,7.424-7.031,9.897
	c-0.291,0.202-0.478,0.532-0.497,0.885c-0.022,0.358,0.12,0.701,0.389,0.938c2.06,1.829,4.104,2.696,5.673,3.104
	c-2.654,0.994-5.548,1.046-8.44,0.14c-1.328-0.415-2.547-0.977-3.722-1.715c-0.262-0.165-0.57-0.219-0.867-0.151
	c-3.253,0.707-6.753,0.675-10.129-0.092l-0.237-0.054l-0.097,0.222c-0.254,0.581-0.505,1.099-0.767,1.582l-0.182,0.335l0.37,0.09
	c3.664,0.891,7.49,0.988,11.075,0.282c1.223,0.727,2.486,1.29,3.86,1.719c1.594,0.5,3.205,0.753,4.788,0.753
	c5.479,0,8.895-2.998,9.038-3.125C76.004,52.34,76.112,51.769,75.876,51.301z"/>
</svg>
