<?xml version="1.0" encoding="utf-8"?>
<!-- Generator: Adobe Illustrator 16.0.0, SVG Export Plug-In . SVG Version: 6.00 Build 0)  -->
<!DOCTYPE svg PUBLIC "-//W3C//DTD SVG 1.1//EN" "http://www.w3.org/Graphics/SVG/1.1/DTD/svg11.dtd">
<svg version="1.1" id="Layer_1" xmlns="http://www.w3.org/2000/svg" xmlns:xlink="http://www.w3.org/1999/xlink" x="0px" y="0px"
	 width="76px" height="80px" viewBox="0 0 76 80" enable-background="new 0 0 76 80" xml:space="preserve">
<path id="XMLID_56_" fill="#B3B3B3" d="M36.813,13.402c0-0.656,0.531-1.188,1.188-1.188s1.188,0.532,1.188,1.188v1.187h-2.375
	V13.402z M71.25,69.214c2.626,0,4.75-2.124,4.75-4.75V19.339c0-2.625-2.124-4.75-4.75-4.75H41.563v-1.187
	c0-1.968-1.594-3.563-3.563-3.563c-1.968,0-3.563,1.595-3.563,3.563v1.187H4.75c-2.626,0-4.75,2.125-4.75,4.75v45.125
	c0,2.626,2.124,4.75,4.75,4.75H71.25z M73.625,64.464c0,1.312-1.063,2.375-2.375,2.375H4.75c-1.312,0-2.375-1.063-2.375-2.375
	V19.339c0-1.312,1.063-2.375,2.375-2.375h66.5c1.312,0,2.375,1.063,2.375,2.375V64.464z M33.253,33.802h9.498v25.669h-9.498V33.802z
	 M15.807,43.305h9.5v16.168h-9.5V43.305z M50.695,25.012h9.5v34.46h-9.5V25.012z M26.375,41.179H14.741
	c-0.583,0-1.061,0.478-1.061,1.063v18.291c0,0.587,0.478,1.063,1.061,1.063h11.634c0.583,0,1.061-0.477,1.061-1.063V42.242
	C27.438,41.656,26.958,41.179,26.375,41.179z M43.813,31.68H32.189c-0.589,0-1.064,0.476-1.064,1.062v27.793
	c0,0.585,0.476,1.062,1.064,1.062h11.623c0.589,0,1.063-0.477,1.063-1.062V32.742C44.876,32.155,44.401,31.68,43.813,31.68z
	 M61.259,22.887H49.627c-0.585,0-1.062,0.477-1.062,1.062v36.586c0,0.585,0.477,1.062,1.062,1.062h11.632
	c0.586,0,1.063-0.477,1.063-1.062V23.949C62.321,23.364,61.845,22.887,61.259,22.887z"/>
</svg>
