<?xml version="1.0" encoding="UTF-8"?>
<svg id="Layer_2" data-name="Layer 2" xmlns="http://www.w3.org/2000/svg" viewBox="0 0 532.15 132.67">
  <defs>
    <style>
      .cls-1 {
        fill: #f9f3e6;
        stroke-width: 0px;
      }
    </style>
  </defs>
  <g id="Layer_1-2" data-name="Layer 1">
    <g>
      <path class="cls-1" d="m54.01,97.29l30.56-8.34,6.76,24.75-69.46,18.97-6.06-22.2,31.35-54.18-1.69-6.18-3.97-2.24-10.19,2.78-2.28,3.95,2.63,9.63-26.51,7.24L0,52.56l11.2-19.56,38.66-10.56,19.58,11.13,6.87,25.17-22.31,38.55Z"/>
      <path class="cls-1" d="m94.23,28.76l13.9-17.73,43.71-5.38,17.78,13.83,8.23,66.77-13.91,17.61-43.71,5.38-17.77-13.71-8.23-66.77Zm49.29,3.63l-3.49-2.79-14.53,1.79-2.82,3.57,5.87,47.65,3.59,2.66,14.53-1.79,2.72-3.44-5.87-47.65Z"/>
      <path class="cls-1" d="m192.3,17.58l15.51-16.34,44.02-1.23,16.4,15.45,1.89,67.25-15.51,16.22-44.02,1.23-16.4-15.33-1.89-67.25Zm48.73,8.27l-3.21-3.11-14.63.41-3.15,3.29,1.35,47.99,3.33,2.99,14.63-.41,3.03-3.17-1.35-47.99Z"/>
      <path class="cls-1" d="m337.05,17.19l17.49-14.2,43.81,4.47,14.26,17.44-6.83,66.93-17.48,14.08-43.81-4.47-14.27-17.32,6.83-66.93Zm47.25,14.51l-2.78-3.5-14.56-1.49-3.55,2.85-4.88,47.76,2.91,3.39,14.56,1.49,3.42-2.75,4.88-47.76Z"/>
      <path class="cls-1" d="m456.11,94.65l5.82,1.46-5.44,21.66-38.29-9.61,5.44-21.66,5.82,1.46,13.22-52.66-5.82-1.46,5.44-21.66,38.29,9.61-5.44,21.66-5.82-1.46-3.41,13.6,17.26-10.12-2.56-.64,5.44-21.66,46.09,11.57-5.44,21.66-8.03-2.02-32.84,19.44,20.32,33.39,7.33,1.84-5.44,21.66-46.09-11.57,5.44-21.66,2.68.67-7.11-11.58-5.7,3.47-1.16,4.61Z"/>
    </g>
  </g>
</svg>