<?xml version="1.0" encoding="utf-8"?>
<!-- Generator: Adobe Illustrator 23.0.1, SVG Export Plug-In . SVG Version: 6.00 Build 0)  -->
<svg version="1.1" id="Layer_1" xmlns="http://www.w3.org/2000/svg" xmlns:xlink="http://www.w3.org/1999/xlink" x="0px" y="0px"
	 viewBox="0 0 435.2 162" style="enable-background:new 0 0 435.2 162;" xml:space="preserve">
<style type="text/css">
	.st0{fill:#FF003B;}
	.st1{fill:#0077FF;}
	.st2{fill:#FFFFFF;}
	.st3{fill:#AAAAAA;}
</style>
<title>200ok-white</title>
<path class="st0" d="M92.9,152.3l-8.1,8.1c-1.9,2.1-5.2,2.2-7.2,0.2c-0.1-0.1-0.2-0.2-0.2-0.2L1.6,84.8c-2.1-1.9-2.2-5.2-0.2-7.2
	c0.1-0.1,0.2-0.2,0.2-0.2L77.3,1.6c1.9-2.1,5.2-2.2,7.2-0.2c0.1,0.1,0.2,0.2,0.2,0.2l8.1,8.1c2.1,1.9,2.2,5.2,0.2,7.2
	c-0.1,0.1-0.2,0.2-0.2,0.2L29.1,81.1l63.8,63.8c2.1,1.9,2.2,5.2,0.2,7.2C93,152.1,93,152.2,92.9,152.3L92.9,152.3z"/>
<path class="st1" d="M357.9,1.6c-1.9-2.1-5.2-2.2-7.2-0.2c-0.1,0.1-0.2,0.2-0.2,0.2l-8.1,8.1c-2.1,1.9-2.2,5.2-0.2,7.2
	c0.1,0.1,0.2,0.2,0.2,0.2l63.8,63.8l-63.8,63.8c-2.1,1.9-2.2,5.2-0.2,7.2c0.1,0.1,0.2,0.2,0.2,0.2l8.1,8.1c1.9,2.1,5.2,2.2,7.2,0.2
	c0.1-0.1,0.2-0.2,0.2-0.2l75.7-75.7c2.1-1.9,2.2-5.2,0.2-7.2c-0.1-0.1-0.2-0.2-0.2-0.2L357.9,1.6z"/>
<path class="st2" d="M93.5,104.9c0-8.4,4.2-15.6,12.6-21.6s12.6-11.1,12.7-15.3V49.8c0-4.2-1.9-6.3-5.8-6.3h-0.1
	c-3.9,0-5.8,2.1-5.8,6.3v12.5H93.5V49.8c0-13.1,6.4-19.6,19.3-19.6c12.9,0,19.3,6.5,19.4,19.6v18.6c0,8.6-4.2,15.9-12.6,21.9
	s-12.6,11.3-12.5,15.8v5.6h25.2v13.3H93.5V104.9z"/>
<path class="st2" d="M182.7,106.8c0,13.1-6.4,19.6-19.4,19.6c-12.9,0-19.4-6.5-19.3-19.6V49.8c0-13.1,6.4-19.6,19.3-19.6
	c12.9,0,19.3,6.5,19.4,19.6V106.8z M169.2,49.8c0-4.2-2-6.3-5.9-6.3h-0.1c-3.9,0-5.8,2.1-5.8,6.3v57.1c0,4.2,1.9,6.3,5.9,6.3
	s5.9-2.1,5.9-6.3L169.2,49.8z"/>
<path class="st2" d="M232.7,106.8c0,13.1-6.4,19.6-19.4,19.6c-12.9,0-19.3-6.5-19.3-19.6V49.8c0-13.1,6.4-19.6,19.3-19.6
	c12.9,0,19.3,6.5,19.4,19.6V106.8z M219.3,49.8c0-4.2-2-6.3-5.9-6.3h-0.1c-3.9,0-5.8,2.1-5.8,6.3v57.1c0,4.2,2,6.3,5.9,6.3
	c3.9,0,5.9-2.1,5.9-6.3L219.3,49.8z"/>
<path class="st3" d="M284.7,106.8c0,13.7-6.8,20.6-20.5,20.6c-13.7,0-20.5-6.8-20.5-20.6V49.8c0-13.7,6.8-20.5,20.5-20.5
	c13.7,0,20.5,6.8,20.5,20.5V106.8z M268.9,49.8c0-3.6-1.6-5.3-4.7-5.4h-0.1c-3.1,0-4.6,1.8-4.6,5.4v57.1c0,3.6,1.6,5.4,4.7,5.4
	s4.7-1.8,4.7-5.4L268.9,49.8z"/>
<path class="st3" d="M323,78.3l18.2,47.6h-17L312,87.9v37.9h-15.9V30.7H312v37.8l12.2-37.8h16.9L323,78.3z"/>
</svg>
