<?xml version="1.0" encoding="utf-8"?>
<!-- Generator: Adobe Illustrator 25.2.3, SVG Export Plug-In . SVG Version: 6.00 Build 0)  -->
<svg version="1.1" id="Layer_1" xmlns="http://www.w3.org/2000/svg" xmlns:xlink="http://www.w3.org/1999/xlink" x="0px" y="0px"
	 viewBox="0 0 864 822.5" style="enable-background:new 0 0 864 822.5;" xml:space="preserve">
<style type="text/css">
	.st0{fill:#203751;}
	.st1{fill:#FFFFFF;}
</style>
<g>
	<path class="st0" d="M800.2,822.5H63.8C28.5,822.5,0,793.9,0,758.7v-695C0,28.5,28.5,0,63.8,0l736.5,0C835.5,0,864,28.5,864,63.8
		v695C864,793.9,835.5,822.5,800.2,822.5z"/>
	<g>
		<path class="st1" d="M730.1,127.5H538.8c-3.5,0-6.4,2.9-6.4,6.4v44.6c0,3.5,2.9,6.4,6.4,6.4h60.6c3.5,0,6.4,2.9,6.4,6.4v191.3
			c0,3.5,2.9,6.4,6.4,6.4h44.6c3.5,0,6.4-2.9,6.4-6.4V191.3c0-3.5,2.9-6.4,6.4-6.4h60.6c3.5,0,6.4-2.9,6.4-6.4v-44.6
			C736.5,130.4,733.6,127.5,730.1,127.5z"/>
		<path class="st1" d="M484.6,127.5H440c-3.5,0-6.4,2.9-6.4,6.4v248.7c0,3.5,2.9,6.4,6.4,6.4h44.6c3.5,0,6.4-2.9,6.4-6.4V133.9
			C491,130.4,488.2,127.5,484.6,127.5z"/>
		<path class="st1" d="M730.1,433.6H538.8c-3.5,0-6.4,2.9-6.4,6.4v44.6c0,3.5,2.9,6.4,6.4,6.4h60.6c3.5,0,6.4,2.9,6.4,6.4v191.3
			c0,3.5,2.9,6.4,6.4,6.4h44.6c3.5,0,6.4-2.9,6.4-6.4V497.3c0-3.5,2.9-6.4,6.4-6.4h60.6c3.5,0,6.4-2.9,6.4-6.4v-44.6
			C736.5,436.4,733.6,433.6,730.1,433.6z"/>
		<path class="st1" d="M484.6,433.6H440c-3.5,0-6.4,2.9-6.4,6.4v248.7c0,3.5,2.9,6.4,6.4,6.4h44.6c3.5,0,6.4-2.9,6.4-6.4V439.9
			C491,436.4,488.2,433.6,484.6,433.6z"/>
		<path class="st1" d="M382.6,229.5h-118c-3.5,0-6.4,2.9-6.4,6.4v44.6c0,3.5,2.9,6.4,6.4,6.4h61.1c-11.9,27.9-40.6,46.9-73.3,44.4
			c-35.8-2.8-64.6-31.6-67.3-67.4c-3.3-43,30.8-79,73.1-79c18.1,0,34.7,6.6,47.5,17.5c2.5,2.2,6.3,2,8.6-0.3l31.6-31.6
			c2.6-2.6,2.5-6.8-0.2-9.2c-23.8-21.6-55.6-34.5-90.4-33.7c-68.8,1.4-125.2,56.8-127.8,125.5c-2.9,74.4,56.8,135.9,130.6,135.9
			c27.2,0,52.4-8.3,73.3-22.6v16.2c0,3.5,2.9,6.4,6.4,6.4h44.6c3.5,0,6.4-2.9,6.4-6.4V235.9C389,232.4,386.1,229.5,382.6,229.5z"/>
		<path class="st1" d="M381.8,433.6h-45.7c-3,0-5.6,2.1-6.2,5l-22.4,102.2l-25.6-102.3c-0.7-2.8-3.3-4.8-6.2-4.8h-34.8
			c-2.9,0-5.5,2-6.2,4.8l-25.6,102.3l-22.4-102.2c-0.6-2.9-3.2-5-6.2-5h-45.7c-4.1,0-7.1,3.8-6.2,7.7L183.1,690c0.6,2.9,3.2,5,6.2,5
			h35.4c2.9,0,5.5-2,6.2-4.8l27.4-109.6l27.4,109.6c0.7,2.8,3.3,4.8,6.2,4.8h35.4c3,0,5.6-2.1,6.2-5l54.6-248.7
			C388.9,437.3,385.9,433.6,381.8,433.6z"/>
	</g>
</g>
</svg>
