<svg width="316" height="107" viewBox="0 0 316 107" fill="none" xmlns="http://www.w3.org/2000/svg">
<path d="M183.439 90.0811H189.53V107H193.626V89.7282C195.654 89.9513 197.693 90.0691 199.734 90.0811V86.4468H183.439V90.0811Z" fill="#29293B"/>
<path d="M213.327 102.995C214.747 103.018 216.163 102.834 217.529 102.448L218.888 107H223.284L216.54 86.4468H210.167L203.441 107H207.714L209.038 102.413C210.431 102.818 211.877 103.014 213.327 102.995ZM210.838 96.3088C211.491 94.0859 212.215 91.6159 212.727 89.4636H213.981C214.457 91.5807 215.075 94.0859 215.746 96.3088L216.805 99.8372H209.85L210.838 96.3088Z" fill="#29293B"/>
<path d="M230.115 107H243.144V103.472H234.211V86.4468H230.115V107Z" fill="#29293B"/>
<path d="M251.053 107H265.599V103.648H255.131V98.4788C258.246 98.7816 261.375 98.917 264.505 98.8845V95.8324H255.131V89.5342C258.661 89.6929 262.086 89.7988 265.599 89.7988V86.4468H251.053V107Z" fill="#29293B"/>
<path d="M287.347 107H292.431V86.4468H288.742V95.1091C288.742 97.3849 288.954 100.702 289.183 103.136H288.918C287.878 100.389 286.645 97.7184 285.229 95.1444L280.144 86.4468H274.689V107H278.379V98.4788C278.379 96.0794 278.238 92.2687 278.008 89.6577H278.273C279.266 92.1734 280.392 94.635 281.645 97.0321L287.347 107Z" fill="#29293B"/>
<path d="M299.705 90.0811H305.796V107H309.891V89.7282C311.92 89.9513 313.959 90.0691 315.999 90.0811V86.4468H299.705V90.0811Z" fill="#29293B"/>
<path d="M117.855 32.0913H109.787V67.3757H117.855V32.0913Z" fill="#29293B"/>
<path d="M117.855 17.8188H109.787V26.4635H117.855V17.8188Z" fill="#29293B"/>
<path d="M145.696 31.2441C142.404 31.5498 139.187 32.4087 136.181 33.7846V32.0204H128.131V67.3048H136.181V40.4534C138.752 39.589 141.42 39.0439 144.125 38.8303C149.192 38.8303 149.933 42.2705 149.933 48.9393V67.3048H158.001V48.8863C158.001 37.0484 155.547 31.2441 145.696 31.2441Z" fill="#29293B"/>
<path d="M214.157 59.2074C211.703 60.0811 209.145 60.6269 206.548 60.8305C201.252 60.8305 200.74 57.9195 200.74 50.4392V32.0913H192.566V50.5627C192.566 62.9122 194.614 68.2049 204.818 68.2049C208.051 67.8987 211.209 67.0456 214.157 65.6821V67.4463H222.242V32.0913H214.157V59.2074Z" fill="#29293B"/>
<path d="M240.706 17.4658H232.639V67.3051H240.706V17.4658Z" fill="#29293B"/>
<path d="M264.804 45.8695C258.926 44.9521 257.425 44.3699 257.425 42.2C257.425 39.5183 259.19 38.5833 263.321 38.5833C267.452 38.5833 275.997 39.7124 275.997 39.7124L276.209 32.8672C271.771 31.9924 267.275 31.4498 262.756 31.2441C255.695 31.2441 249.375 34.3492 249.375 42.394C249.375 49.7332 253.329 51.7267 262.403 53.1911C268.053 54.1261 269.2 54.7612 269.2 57.0018C269.2 59.8422 267.435 60.8301 262.403 60.8301C258.873 60.8301 250.205 59.6834 250.205 59.6834L249.922 66.5462C254.293 67.3745 258.718 67.8875 263.162 68.0811C271.883 68.0811 277.285 65.0466 277.285 56.8077C277.25 49.8037 274.125 47.3515 264.804 45.8695Z" fill="#29293B"/>
<path d="M312.471 57.7251V43.1879C312.471 34.4903 308.216 31.2441 300.431 31.2441C295.607 31.4619 290.802 31.9804 286.043 32.7967L286.326 39.6418C286.326 39.6418 294.746 39.0067 299.99 39.0067C300.588 38.9468 301.192 39.0253 301.755 39.2361C302.299 39.4241 302.793 39.7315 303.202 40.1358C303.61 40.541 303.924 41.0305 304.123 41.57C304.321 42.1095 304.399 42.6858 304.35 43.2585V45.3579L295.523 46.0636C287.914 46.6458 283.713 49.2568 283.713 56.8077C283.713 63.8646 287.244 68.0811 293.846 68.0811C297.812 67.873 301.717 67.0209 305.409 65.5582C307.51 67.1813 309.364 68.0811 314.889 68.0811L315.172 61.2535C313.371 60.9007 312.577 60.195 312.471 57.7251ZM304.385 59.7716C301.504 60.5653 298.544 61.0386 295.558 61.183C293.228 61.183 292.028 59.5599 292.028 56.5784C292.028 53.5968 293.634 52.3619 296.688 52.0796L304.474 51.6562L304.385 59.7716Z" fill="#29293B"/>
<path d="M63.7826 0L42.5982 12.2437L21.1844 0L0 12.2437V36.7134L21.1844 48.9395V73.4269L42.3687 85.6529L63.6413 73.4269V48.9395L84.8257 36.7134V12.2437L63.7826 0Z" fill="#246CB3"/>
<path d="M63.7818 0L21.1836 24.4697V73.4269L42.368 85.6529V36.7134L85.0368 12.2437L63.7818 0Z" fill="#0896CB"/>
<path d="M42.5098 61.1831V85.6529L63.7824 73.4268V48.9395L42.5098 61.1831Z" fill="#33C1D4"/>
<path d="M63.7826 24.4697L21.1844 0L0 12.2437L42.5099 36.7134L63.7826 24.4697Z" fill="#33C1D4"/>
<path d="M186.051 60.248C186.051 60.248 182.291 60.4773 180.314 60.4773C176.783 60.4773 176.642 58.6249 176.642 53.7733V39.3596H186.192V32.091H176.642V21.9644H168.556V32.091H164.037V39.3066H168.556V54.8847C168.556 64.9937 171.081 68.1517 179.149 68.1517C181.576 68.0043 183.989 67.68 186.369 67.1813L186.051 60.248Z" fill="#29293B"/>
</svg>
