<svg xmlns="http://www.w3.org/2000/svg" viewBox="0 0 308.98 432.37"><defs><style>.cls-1{fill:#ef483c;}.cls-2{fill:#3382c5;}</style></defs><title>Asset 1v1</title><g id="Layer_2" data-name="Layer 2"><g id="Layer_1-2" data-name="Layer 1"><path class="cls-1" d="M175,287l-15.3,15.3a9.62,9.62,0,0,1-14.07,0L3.06,159.69a9.62,9.62,0,0,1,0-14.07L145.62,3.06a9.62,9.62,0,0,1,14.07,0L175,18.35a9.62,9.62,0,0,1,0,14.07L54.76,152.65,175,272.88A9.62,9.62,0,0,1,175,287Z"/><path class="cls-2" d="M163.36,130.12a9.62,9.62,0,0,0-14.07,0L134,145.41a9.62,9.62,0,0,0,0,14.07L254.22,279.71,134,399.94A9.62,9.62,0,0,0,134,414l15.3,15.3a9.62,9.62,0,0,0,14.07,0L305.92,286.75a9.62,9.62,0,0,0,0-14.07Z"/></g></g></svg>