<svg viewBox="0 0 165 30" xmlns="http://www.w3.org/2000/svg"><path d="M35.7029922 7.97036099c2.8972396 0 6.3576562 1.11025663 8.2090364 4.83736531 1.3152294 2.6312923 1.2913932 5.4452814 1.2160545 7.1382453l-.0092055.1976914H31.4780182l.0046848.4904313c.0402888 1.6172034.4270616 4.8626824 4.1400809 4.8626824 1.4355552 0 2.8711104-.5160531 3.4767851-2.5439109l.0638399-.2315895h5.4321093l-.0233445.2531627c-.100485.98262-.3957201 2.5455798-1.9079576 4.1085396-1.4890104 1.5466809-4.1444791 2.3393584-7.121927 2.3393584-1.7302084 0-5.0299219-.3170145-7.1623177-2.4977245-1.8510938-1.9034987-2.6153646-4.5996749-2.6153646-7.8115997 0-3.2517279.804375-7.1380496 4.2246875-9.47712572 1.5692187-1.03121471 3.5008073-1.66552609 5.7136979-1.66552609zm20.4236484.07938067c1.6901042 0 5.2307292.27749358 7.243099 2.57733104 1.2584114 1.4959247 1.3930285 3.6288433 1.4065134 4.6709876l.0415335 8.2955565c0 1.5155973.0957407 3.0311947.3713191 4.518837l.1119361.5565009h-5.3917188c-.2010937-1.2291018-.2010937-2.1411891-.2010937-2.7356972-2.2535677 3.2119247-4.9494271 3.2119247-6.0763542 3.2119247-2.9373438 0-4.2650781-.8330453-5.0697396-1.5864842-1.2074219-1.1895808-1.7703125-2.8153036-1.7703125-4.4009409l.0050593-.2613236c.0630004-1.6306426.7548091-4.3493311 4.3004095-5.9646388 2.4944791-1.1102566 6.0757812-1.1102566 8.0474739-1.1102566 0-1.3087083-.0403906-1.9427374-.2815885-2.6566553-.5233594-1.4673567-2.0925781-1.6655261-2.6560417-1.6655261-.8450521 0-1.7304948.3568178-2.2532812 1.1102566-.3621094.5517793-.4279475 1.0767245-.439918 1.5098977l-.0026602.2744736h-5.8342968l.0171766-.3647058c.0694615-1.1420165.364376-3.0030736 2.2759223-4.3538143 1.8510938-1.3087083 4.2252604-1.62572284 6.1565625-1.62572284zm55.6369684 0c1.689818 0 5.23073.27749358 7.242813 2.57733104 1.258411 1.4959247 1.393271 3.6288433 1.406795 4.6709876l.041538 8.2955565c0 1.5155973.095515 3.0311947.371043 4.518837l.111926.5565009h-5.391719c-.20138-1.2291018-.20138-2.1411891-.20138-2.7356972-2.253281 3.2119247-4.949141 3.2119247-6.075781 3.2119247-2.937344 0-4.265365-.8330453-5.070026-1.5864842-1.207136-1.1895808-1.770313-2.8153036-1.770313-4.4009409 0-1.5864842.563177-4.5209154 4.305183-6.2259624 2.494765-1.1102566 6.076354-1.1102566 8.04776-1.1102566l-.002926-.521768c-.012642-.9697219-.071676-1.5229577-.278663-2.1348873-.523359-1.4673567-2.092291-1.6655261-2.656041-1.6655261-.844766 0-1.730209.3568178-2.252995 1.1102566-.362344.5517793-.428225 1.0767245-.440203 1.5098977l-.002662.2744736h-5.83401l.017168-.3647058c.069417-1.1420165.364128-3.0030736 2.275931-4.3538143 1.850807-1.3087083 4.224974-1.62572284 6.156562-1.62572284zm47.080058-8.0099384h5.995573V25.4176219c0 1.0901903.067397 2.2809552.140631 3.052185l.020072.199543h-6.035677l-.16099-2.8949102-.231934.4056161c-.351069.5919485-.806585 1.2101383-1.819967 1.8544181-1.406017.8990077-2.883834 1.0197078-3.789611 1.0303442l-.153774.0008705c-5.43211 0-8.651329-3.68787-8.651329-9.953071 0-6.6217365 3.661797-10.74574848 8.973021-10.74574848 3.551111 0 5.096027 1.90136918 5.663606 2.66756678l.050379.0684127V.03980325zM87.6826901 2.69651496v6.06674936h4.8285417v3.88603937h-4.8285417v9.0409837l.0169686.6150496c.0601799 1.463747.3358638 2.3589025 2.6791772 2.3589025l.5273899-.0058937c.3945934-.0098202.695351-.031906 1.0403447-.066209l.4440623-.0470247v3.8465184c-1.9313021.5151839-3.6615104.6343113-4.6271614.6343113-5.995573 0-5.995573-3.7273909-5.995573-5.3926347V4.83770402l5.9147917-2.14118905zM6.23677083.0001976V11.459864H17.221875V.0001976h6.3172656v28.6690676h-6.2367708V16.0990599H6.23677083v12.5702053H0V.0001976h6.23677083zM100.451771 0v28.6690676h-5.9551825V0h5.9551825zM72.9644896 8.56492558l.1205989 3.84651842.1055379-.2312743c.7657477-1.6443914 2.1360349-3.78017843 6.4985651-3.66673071l.3167304.01196563v5.27378958c-5.8275503-.5358497-6.3657759 2.2917456-6.3959656 4.7357901l-.0015084 10.1339704h-5.9554687V13.5612216c0-.845874-.1272017-3.2269734-.2401692-4.55338752l-.0414194-.4429085h5.593099zm62.3009064-.47566296c3.983776 0 5.67388 2.37916168 6.196953 3.76691188l.081694.2362446c.36298 1.0981652.473883 2.1867842.4811 5.3988122l.000383 11.1777234h-6.075781l-.000442-12.7241005c-.003533-.717291-.035334-1.3436041-.321537-1.9076874-.442865-.872284-1.368412-1.705047-2.897526-1.705047-1.287344 0-2.454089.5945081-3.098047 1.5466809-.339722.4829849-.67894 1.3842811-.720015 2.7694823l-.004152.2835117v11.73716h-5.995573l-.001347-16.7915767c-.004055-.5883271-.020317-1.8353847-.085539-2.85906028l-.033713-.45339214h5.713698l.16099 3.01375532.202116-.3192723c.711147-1.0822792 2.413277-3.17014598 6.396738-3.17014598zM59.1447656 19.2316322c-3.8227864-.3170146-6.5590364.872284-6.5590364 3.2517279 0 1.347947.9255468 2.8548247 2.897526 2.8548247 1.08625 0 1.9714063-.5157485 2.5348698-1.1497776 1.0461458-1.2689051 1.1266406-2.815586 1.1266406-4.956775zm55.6366824 0c-3.822787-.3170146-6.559037.872284-6.559037 3.2517279 0 1.347947.925547 2.8548247 2.897527 2.8548247 1.086536 0 1.971406-.5157485 2.534869-1.1497776 1.046433-1.2689051 1.126641-2.815586 1.126641-4.956775zm39.837245-7.018527c-3.983776 0-4.426068 4.7185201-4.426068 6.740864 0 3.3307699 1.126354 6.3050043 4.104375 6.3050043 1.730208 0 3.138151-1.0312147 3.782109-2.2603165.885157-1.6655261.965651-3.7271087.965651-4.7188024 0-3.925278-1.730208-6.0667494-4.426067-6.0667494zm-119.1167946-.238142c-2.5384421 0-3.6363947 2.0173549-3.8095759 4.2752369l-.0132105.2058752h7.3639844l-.0047458-.3184336c-.0394801-1.2265421-.3976749-4.1626785-3.5364522-4.1626785z" fill="#fff" fill-rule="evenodd"/></svg>